<svg xmlns="http://www.w3.org/2000/svg" version="1.1" xmlns:xlink="http://www.w3.org/1999/xlink" xmlns:svgjs="http://svgjs.dev/svgjs" width="1440" height="560" preserveAspectRatio="none" viewBox="0 0 1440 560"><g mask="url(&quot;#SvgjsMask1016&quot;)" fill="none"><rect width="1440" height="560" x="0" y="0" fill="rgba(253, 230, 138, 1)"></rect><path d="M107.3 328.06L172.26 365.56L172.26 440.56L107.3 478.06L42.35 440.56L42.35 365.56zM42.35 440.56L107.3 478.06L107.3 553.06L42.35 590.56L-22.6 553.06L-22.6 478.06zM172.26 215.56L237.21 253.06L237.21 328.06L172.26 365.56L107.3 328.06L107.3 253.06zM237.21 553.06L302.17 590.56L302.17 665.56L237.21 703.06L172.26 665.56L172.26 590.56zM302.17 -9.44L367.12 28.06L367.12 103.06L302.17 140.56L237.21 103.06L237.21 28.06zM367.12 103.06L432.07 140.56L432.07 215.56L367.12 253.06L302.17 215.56L302.17 140.56zM367.12 328.06L432.07 365.56L432.07 440.56L367.12 478.06L302.17 440.56L302.17 365.56zM497.03 103.06L561.98 140.56L561.98 215.56L497.03 253.06L432.07 215.56L432.07 140.56zM561.98 -9.44L626.93 28.06L626.93 103.06L561.98 140.56L497.03 103.06L497.03 28.06zM561.98 215.56L626.93 253.06L626.93 328.06L561.98 365.56L497.03 328.06L497.03 253.06zM561.98 440.56L626.93 478.06L626.93 553.06L561.98 590.56L497.03 553.06L497.03 478.06zM756.84 103.06L821.8 140.56L821.8 215.56L756.84 253.06L691.89 215.56L691.89 140.56zM691.89 215.56L756.84 253.06L756.84 328.06L691.89 365.56L626.93 328.06L626.93 253.06zM756.84 328.06L821.8 365.56L821.8 440.56L756.84 478.06L691.89 440.56L691.89 365.56zM756.84 553.06L821.8 590.56L821.8 665.56L756.84 703.06L691.89 665.56L691.89 590.56zM821.79 -9.44L886.75 28.06L886.75 103.06L821.79 140.56L756.84 103.06L756.84 28.06zM886.75 328.06L951.7 365.56L951.7 440.56L886.75 478.06L821.79 440.56L821.79 365.56zM821.79 440.56L886.75 478.06L886.75 553.06L821.79 590.56L756.84 553.06L756.84 478.06zM1146.56 103.06L1211.52 140.56L1211.52 215.56L1146.56 253.06L1081.61 215.56L1081.61 140.56zM1146.56 328.06L1211.52 365.56L1211.52 440.56L1146.56 478.06L1081.61 440.56L1081.61 365.56zM1211.52 -9.44L1276.47 28.06L1276.47 103.06L1211.52 140.56L1146.56 103.06L1146.56 28.06zM1276.47 328.06L1341.42 365.56L1341.42 440.56L1276.47 478.06L1211.52 440.56L1211.52 365.56zM1211.52 440.56L1276.47 478.06L1276.47 553.06L1211.52 590.56L1146.56 553.06L1146.56 478.06zM1341.42 -9.44L1406.38 28.06L1406.38 103.06L1341.42 140.56L1276.47 103.06L1276.47 28.06zM1536.29 103.06L1601.24 140.56L1601.24 215.56L1536.29 253.06L1471.33 215.56L1471.33 140.56zM1471.33 215.56L1536.29 253.06L1536.29 328.06L1471.33 365.56L1406.38 328.06L1406.38 253.06zM1471.33 440.56L1536.29 478.06L1536.29 553.06L1471.33 590.56L1406.38 553.06L1406.38 478.06z" stroke="rgba(227, 204, 109, 1)" stroke-width="2"></path><path d="M99.8 328.06 a7.5 7.5 0 1 0 15 0 a7.5 7.5 0 1 0 -15 0zM164.76 365.56 a7.5 7.5 0 1 0 15 0 a7.5 7.5 0 1 0 -15 0zM164.76 440.56 a7.5 7.5 0 1 0 15 0 a7.5 7.5 0 1 0 -15 0zM99.8 478.06 a7.5 7.5 0 1 0 15 0 a7.5 7.5 0 1 0 -15 0zM34.85 440.56 a7.5 7.5 0 1 0 15 0 a7.5 7.5 0 1 0 -15 0zM34.85 365.56 a7.5 7.5 0 1 0 15 0 a7.5 7.5 0 1 0 -15 0zM99.8 553.06 a7.5 7.5 0 1 0 15 0 a7.5 7.5 0 1 0 -15 0zM34.85 590.56 a7.5 7.5 0 1 0 15 0 a7.5 7.5 0 1 0 -15 0zM-30.1 553.06 a7.5 7.5 0 1 0 15 0 a7.5 7.5 0 1 0 -15 0zM-30.1 478.06 a7.5 7.5 0 1 0 15 0 a7.5 7.5 0 1 0 -15 0zM164.76 215.56 a7.5 7.5 0 1 0 15 0 a7.5 7.5 0 1 0 -15 0zM229.71 253.06 a7.5 7.5 0 1 0 15 0 a7.5 7.5 0 1 0 -15 0zM229.71 328.06 a7.5 7.5 0 1 0 15 0 a7.5 7.5 0 1 0 -15 0zM99.8 253.06 a7.5 7.5 0 1 0 15 0 a7.5 7.5 0 1 0 -15 0zM229.71 553.06 a7.5 7.5 0 1 0 15 0 a7.5 7.5 0 1 0 -15 0zM294.67 590.56 a7.5 7.5 0 1 0 15 0 a7.5 7.5 0 1 0 -15 0zM294.67 665.56 a7.5 7.5 0 1 0 15 0 a7.5 7.5 0 1 0 -15 0zM229.71 703.06 a7.5 7.5 0 1 0 15 0 a7.5 7.5 0 1 0 -15 0zM164.76 665.56 a7.5 7.5 0 1 0 15 0 a7.5 7.5 0 1 0 -15 0zM164.76 590.56 a7.5 7.5 0 1 0 15 0 a7.5 7.5 0 1 0 -15 0zM294.67 -9.44 a7.5 7.5 0 1 0 15 0 a7.5 7.5 0 1 0 -15 0zM359.62 28.06 a7.5 7.5 0 1 0 15 0 a7.5 7.5 0 1 0 -15 0zM359.62 103.06 a7.5 7.5 0 1 0 15 0 a7.5 7.5 0 1 0 -15 0zM294.67 140.56 a7.5 7.5 0 1 0 15 0 a7.5 7.5 0 1 0 -15 0zM229.71 103.06 a7.5 7.5 0 1 0 15 0 a7.5 7.5 0 1 0 -15 0zM229.71 28.06 a7.5 7.5 0 1 0 15 0 a7.5 7.5 0 1 0 -15 0zM424.57 140.56 a7.5 7.5 0 1 0 15 0 a7.5 7.5 0 1 0 -15 0zM424.57 215.56 a7.5 7.5 0 1 0 15 0 a7.5 7.5 0 1 0 -15 0zM359.62 253.06 a7.5 7.5 0 1 0 15 0 a7.5 7.5 0 1 0 -15 0zM294.67 215.56 a7.5 7.5 0 1 0 15 0 a7.5 7.5 0 1 0 -15 0zM359.62 328.06 a7.5 7.5 0 1 0 15 0 a7.5 7.5 0 1 0 -15 0zM424.57 365.56 a7.5 7.5 0 1 0 15 0 a7.5 7.5 0 1 0 -15 0zM424.57 440.56 a7.5 7.5 0 1 0 15 0 a7.5 7.5 0 1 0 -15 0zM359.62 478.06 a7.5 7.5 0 1 0 15 0 a7.5 7.5 0 1 0 -15 0zM294.67 440.56 a7.5 7.5 0 1 0 15 0 a7.5 7.5 0 1 0 -15 0zM294.67 365.56 a7.5 7.5 0 1 0 15 0 a7.5 7.5 0 1 0 -15 0zM489.53 103.06 a7.5 7.5 0 1 0 15 0 a7.5 7.5 0 1 0 -15 0zM554.48 140.56 a7.5 7.5 0 1 0 15 0 a7.5 7.5 0 1 0 -15 0zM554.48 215.56 a7.5 7.5 0 1 0 15 0 a7.5 7.5 0 1 0 -15 0zM489.53 253.06 a7.5 7.5 0 1 0 15 0 a7.5 7.5 0 1 0 -15 0zM554.48 -9.44 a7.5 7.5 0 1 0 15 0 a7.5 7.5 0 1 0 -15 0zM619.43 28.06 a7.5 7.5 0 1 0 15 0 a7.5 7.5 0 1 0 -15 0zM619.43 103.06 a7.5 7.5 0 1 0 15 0 a7.5 7.5 0 1 0 -15 0zM489.53 28.06 a7.5 7.5 0 1 0 15 0 a7.5 7.5 0 1 0 -15 0zM619.43 253.06 a7.5 7.5 0 1 0 15 0 a7.5 7.5 0 1 0 -15 0zM619.43 328.06 a7.5 7.5 0 1 0 15 0 a7.5 7.5 0 1 0 -15 0zM554.48 365.56 a7.5 7.5 0 1 0 15 0 a7.5 7.5 0 1 0 -15 0zM489.53 328.06 a7.5 7.5 0 1 0 15 0 a7.5 7.5 0 1 0 -15 0zM554.48 440.56 a7.5 7.5 0 1 0 15 0 a7.5 7.5 0 1 0 -15 0zM619.43 478.06 a7.5 7.5 0 1 0 15 0 a7.5 7.5 0 1 0 -15 0zM619.43 553.06 a7.5 7.5 0 1 0 15 0 a7.5 7.5 0 1 0 -15 0zM554.48 590.56 a7.5 7.5 0 1 0 15 0 a7.5 7.5 0 1 0 -15 0zM489.53 553.06 a7.5 7.5 0 1 0 15 0 a7.5 7.5 0 1 0 -15 0zM489.53 478.06 a7.5 7.5 0 1 0 15 0 a7.5 7.5 0 1 0 -15 0zM749.34 103.06 a7.5 7.5 0 1 0 15 0 a7.5 7.5 0 1 0 -15 0zM814.3 140.56 a7.5 7.5 0 1 0 15 0 a7.5 7.5 0 1 0 -15 0zM814.3 215.56 a7.5 7.5 0 1 0 15 0 a7.5 7.5 0 1 0 -15 0zM749.34 253.06 a7.5 7.5 0 1 0 15 0 a7.5 7.5 0 1 0 -15 0zM684.39 215.56 a7.5 7.5 0 1 0 15 0 a7.5 7.5 0 1 0 -15 0zM684.39 140.56 a7.5 7.5 0 1 0 15 0 a7.5 7.5 0 1 0 -15 0zM749.34 328.06 a7.5 7.5 0 1 0 15 0 a7.5 7.5 0 1 0 -15 0zM684.39 365.56 a7.5 7.5 0 1 0 15 0 a7.5 7.5 0 1 0 -15 0zM814.3 365.56 a7.5 7.5 0 1 0 15 0 a7.5 7.5 0 1 0 -15 0zM814.3 440.56 a7.5 7.5 0 1 0 15 0 a7.5 7.5 0 1 0 -15 0zM749.34 478.06 a7.5 7.5 0 1 0 15 0 a7.5 7.5 0 1 0 -15 0zM684.39 440.56 a7.5 7.5 0 1 0 15 0 a7.5 7.5 0 1 0 -15 0zM749.34 553.06 a7.5 7.5 0 1 0 15 0 a7.5 7.5 0 1 0 -15 0zM814.3 590.56 a7.5 7.5 0 1 0 15 0 a7.5 7.5 0 1 0 -15 0zM814.3 665.56 a7.5 7.5 0 1 0 15 0 a7.5 7.5 0 1 0 -15 0zM749.34 703.06 a7.5 7.5 0 1 0 15 0 a7.5 7.5 0 1 0 -15 0zM684.39 665.56 a7.5 7.5 0 1 0 15 0 a7.5 7.5 0 1 0 -15 0zM684.39 590.56 a7.5 7.5 0 1 0 15 0 a7.5 7.5 0 1 0 -15 0zM814.29 -9.44 a7.5 7.5 0 1 0 15 0 a7.5 7.5 0 1 0 -15 0zM879.25 28.06 a7.5 7.5 0 1 0 15 0 a7.5 7.5 0 1 0 -15 0zM879.25 103.06 a7.5 7.5 0 1 0 15 0 a7.5 7.5 0 1 0 -15 0zM814.29 140.56 a7.5 7.5 0 1 0 15 0 a7.5 7.5 0 1 0 -15 0zM749.34 28.06 a7.5 7.5 0 1 0 15 0 a7.5 7.5 0 1 0 -15 0zM879.25 328.06 a7.5 7.5 0 1 0 15 0 a7.5 7.5 0 1 0 -15 0zM944.2 365.56 a7.5 7.5 0 1 0 15 0 a7.5 7.5 0 1 0 -15 0zM944.2 440.56 a7.5 7.5 0 1 0 15 0 a7.5 7.5 0 1 0 -15 0zM879.25 478.06 a7.5 7.5 0 1 0 15 0 a7.5 7.5 0 1 0 -15 0zM814.29 440.56 a7.5 7.5 0 1 0 15 0 a7.5 7.5 0 1 0 -15 0zM814.29 365.56 a7.5 7.5 0 1 0 15 0 a7.5 7.5 0 1 0 -15 0zM879.25 553.06 a7.5 7.5 0 1 0 15 0 a7.5 7.5 0 1 0 -15 0zM814.29 590.56 a7.5 7.5 0 1 0 15 0 a7.5 7.5 0 1 0 -15 0zM1139.06 103.06 a7.5 7.5 0 1 0 15 0 a7.5 7.5 0 1 0 -15 0zM1204.02 140.56 a7.5 7.5 0 1 0 15 0 a7.5 7.5 0 1 0 -15 0zM1204.02 215.56 a7.5 7.5 0 1 0 15 0 a7.5 7.5 0 1 0 -15 0zM1139.06 253.06 a7.5 7.5 0 1 0 15 0 a7.5 7.5 0 1 0 -15 0zM1074.11 215.56 a7.5 7.5 0 1 0 15 0 a7.5 7.5 0 1 0 -15 0zM1074.11 140.56 a7.5 7.5 0 1 0 15 0 a7.5 7.5 0 1 0 -15 0zM1139.06 328.06 a7.5 7.5 0 1 0 15 0 a7.5 7.5 0 1 0 -15 0zM1204.02 365.56 a7.5 7.5 0 1 0 15 0 a7.5 7.5 0 1 0 -15 0zM1204.02 440.56 a7.5 7.5 0 1 0 15 0 a7.5 7.5 0 1 0 -15 0zM1139.06 478.06 a7.5 7.5 0 1 0 15 0 a7.5 7.5 0 1 0 -15 0zM1074.11 440.56 a7.5 7.5 0 1 0 15 0 a7.5 7.5 0 1 0 -15 0zM1074.11 365.56 a7.5 7.5 0 1 0 15 0 a7.5 7.5 0 1 0 -15 0zM1204.02 -9.44 a7.5 7.5 0 1 0 15 0 a7.5 7.5 0 1 0 -15 0zM1268.97 28.06 a7.5 7.5 0 1 0 15 0 a7.5 7.5 0 1 0 -15 0zM1268.97 103.06 a7.5 7.5 0 1 0 15 0 a7.5 7.5 0 1 0 -15 0zM1139.06 28.06 a7.5 7.5 0 1 0 15 0 a7.5 7.5 0 1 0 -15 0zM1268.97 328.06 a7.5 7.5 0 1 0 15 0 a7.5 7.5 0 1 0 -15 0zM1333.92 365.56 a7.5 7.5 0 1 0 15 0 a7.5 7.5 0 1 0 -15 0zM1333.92 440.56 a7.5 7.5 0 1 0 15 0 a7.5 7.5 0 1 0 -15 0zM1268.97 478.06 a7.5 7.5 0 1 0 15 0 a7.5 7.5 0 1 0 -15 0zM1268.97 553.06 a7.5 7.5 0 1 0 15 0 a7.5 7.5 0 1 0 -15 0zM1204.02 590.56 a7.5 7.5 0 1 0 15 0 a7.5 7.5 0 1 0 -15 0zM1139.06 553.06 a7.5 7.5 0 1 0 15 0 a7.5 7.5 0 1 0 -15 0zM1333.92 -9.44 a7.5 7.5 0 1 0 15 0 a7.5 7.5 0 1 0 -15 0zM1398.88 28.06 a7.5 7.5 0 1 0 15 0 a7.5 7.5 0 1 0 -15 0zM1398.88 103.06 a7.5 7.5 0 1 0 15 0 a7.5 7.5 0 1 0 -15 0zM1333.92 140.56 a7.5 7.5 0 1 0 15 0 a7.5 7.5 0 1 0 -15 0zM1528.79 103.06 a7.5 7.5 0 1 0 15 0 a7.5 7.5 0 1 0 -15 0zM1593.74 140.56 a7.5 7.5 0 1 0 15 0 a7.5 7.5 0 1 0 -15 0zM1593.74 215.56 a7.5 7.5 0 1 0 15 0 a7.5 7.5 0 1 0 -15 0zM1528.79 253.06 a7.5 7.5 0 1 0 15 0 a7.5 7.5 0 1 0 -15 0zM1463.83 215.56 a7.5 7.5 0 1 0 15 0 a7.5 7.5 0 1 0 -15 0zM1463.83 140.56 a7.5 7.5 0 1 0 15 0 a7.5 7.5 0 1 0 -15 0zM1528.79 328.06 a7.5 7.5 0 1 0 15 0 a7.5 7.5 0 1 0 -15 0zM1463.83 365.56 a7.5 7.5 0 1 0 15 0 a7.5 7.5 0 1 0 -15 0zM1398.88 328.06 a7.5 7.5 0 1 0 15 0 a7.5 7.5 0 1 0 -15 0zM1398.88 253.06 a7.5 7.5 0 1 0 15 0 a7.5 7.5 0 1 0 -15 0zM1463.83 440.56 a7.5 7.5 0 1 0 15 0 a7.5 7.5 0 1 0 -15 0zM1528.79 478.06 a7.5 7.5 0 1 0 15 0 a7.5 7.5 0 1 0 -15 0zM1528.79 553.06 a7.5 7.5 0 1 0 15 0 a7.5 7.5 0 1 0 -15 0zM1463.83 590.56 a7.5 7.5 0 1 0 15 0 a7.5 7.5 0 1 0 -15 0zM1398.88 553.06 a7.5 7.5 0 1 0 15 0 a7.5 7.5 0 1 0 -15 0zM1398.88 478.06 a7.5 7.5 0 1 0 15 0 a7.5 7.5 0 1 0 -15 0z" fill="rgba(227, 204, 109, 1)"></path><path d="M61.91 188.87L105.22 213.87L105.22 263.87L61.91 288.87L18.61 263.87L18.61 213.87zM105.22 -36.13L148.52 -11.13L148.52 38.87L105.22 63.87L61.91 38.87L61.91 -11.13zM148.52 38.87L191.82 63.87L191.82 113.87L148.52 138.87L105.22 113.87L105.22 63.87zM148.52 188.87L191.82 213.87L191.82 263.87L148.52 288.87L105.22 263.87L105.22 213.87zM191.82 113.87L235.12 138.87L235.12 188.87L191.82 213.87L148.52 188.87L148.52 138.87zM278.43 -36.13L321.73 -11.13L321.73 38.87L278.43 63.87L235.12 38.87L235.12 -11.13zM321.73 38.87L365.03 63.87L365.03 113.87L321.73 138.87L278.43 113.87L278.43 63.87zM278.43 413.87L321.73 438.87L321.73 488.87L278.43 513.87L235.12 488.87L235.12 438.87zM321.73 488.87L365.03 513.87L365.03 563.87L321.73 588.87L278.43 563.87L278.43 513.87zM494.94 38.87L538.24 63.87L538.24 113.87L494.94 138.87L451.64 113.87L451.64 63.87zM451.64 113.87L494.94 138.87L494.94 188.87L451.64 213.87L408.33 188.87L408.33 138.87zM494.94 188.87L538.24 213.87L538.24 263.87L494.94 288.87L451.64 263.87L451.64 213.87zM494.94 338.87L538.24 363.87L538.24 413.87L494.94 438.87L451.64 413.87L451.64 363.87zM451.64 413.87L494.94 438.87L494.94 488.87L451.64 513.87L408.33 488.87L408.33 438.87zM538.24 113.87L581.54 138.87L581.54 188.87L538.24 213.87L494.94 188.87L494.94 138.87zM581.54 338.87L624.85 363.87L624.85 413.87L581.54 438.87L538.24 413.87L538.24 363.87zM668.15 488.87L711.45 513.87L711.45 563.87L668.15 588.87L624.85 563.87L624.85 513.87zM711.45 -36.13L754.75 -11.13L754.75 38.87L711.45 63.87L668.15 38.87L668.15 -11.13zM711.45 263.87L754.75 288.87L754.75 338.87L711.45 363.87L668.15 338.87L668.15 288.87zM841.36 38.87L884.66 63.87L884.66 113.87L841.36 138.87L798.06 113.87L798.06 63.87zM798.06 413.87L841.36 438.87L841.36 488.87L798.06 513.87L754.75 488.87L754.75 438.87zM884.66 113.87L927.96 138.87L927.96 188.87L884.66 213.87L841.36 188.87L841.36 138.87zM927.96 188.87L971.27 213.87L971.27 263.87L927.96 288.87L884.66 263.87L884.66 213.87zM884.66 413.87L927.96 438.87L927.96 488.87L884.66 513.87L841.36 488.87L841.36 438.87zM971.27 -36.13L1014.57 -11.13L1014.57 38.87L971.27 63.87L927.96 38.87L927.96 -11.13zM971.27 263.87L1014.57 288.87L1014.57 338.87L971.27 363.87L927.96 338.87L927.96 288.87zM1057.87 -36.13L1101.17 -11.13L1101.17 38.87L1057.87 63.87L1014.57 38.87L1014.57 -11.13zM1057.87 413.87L1101.17 438.87L1101.17 488.87L1057.87 513.87L1014.57 488.87L1014.57 438.87zM1144.47 113.87L1187.78 138.87L1187.78 188.87L1144.47 213.87L1101.17 188.87L1101.17 138.87zM1360.99 38.87L1404.29 63.87L1404.29 113.87L1360.99 138.87L1317.68 113.87L1317.68 63.87zM1447.59 38.87L1490.89 63.87L1490.89 113.87L1447.59 138.87L1404.29 113.87L1404.29 63.87z" stroke="rgba(255, 218, 66, 1)" stroke-width="2"></path></g><defs><mask id="SvgjsMask1016"><rect width="1440" height="560" fill="#ffffff"></rect></mask></defs></svg>