<?xml version="1.0" encoding="UTF-8"?>
<svg version="1.1" xmlns="http://www.w3.org/2000/svg" width="306" height="333">
<path d="M0 0 C100.98 0 201.96 0 306 0 C306 109.89 306 219.78 306 333 C205.02 333 104.04 333 0 333 C0 223.11 0 113.22 0 0 Z " fill="#FD7015" transform="translate(0,0)"/>
<path d="M0 0 C0.71711359 5.85642767 -0.94826999 10.61420872 -3 16 C-3.99 16 -4.98 16 -6 16 C-6.39445312 17.07507813 -6.39445312 17.07507813 -6.796875 18.171875 C-12.9984447 32.74959078 -25.7845929 45.12342487 -36 57 C-38.49216806 56.44909969 -40.11222379 55.93023927 -42.3125 54.5625 C-49.40644833 50.43811143 -56.95066164 50.11687259 -65 51 C-75.03992511 53.69334518 -81.54195075 58.58724245 -86.8125 67.4375 C-91.66389145 76.96473914 -92.86922418 87.90696181 -90.125 98.3203125 C-85.34878405 110.60649959 -77.63856981 118.8689648 -65.7734375 124.54296875 C-56.91791145 128.11116604 -49.39752797 128.59228117 -40 128 C-41.27072503 118.81168056 -44.76901253 109.98227707 -49.0859375 101.8046875 C-51.37575222 97.28377127 -53 93.12843216 -53 88 C-39.23949011 86.00363587 -25.4998352 84.6345192 -11.625 83.8125 C-10.92094025 83.76998108 -10.21688049 83.72746216 -9.4914856 83.68365479 C-1.65877638 83.21741801 6.15118748 82.86314291 14 83 C14.3774151 87.78059131 13.34406903 91.40178523 11.90625 95.875 C11.02931394 98.89891746 10.35199056 101.92998227 9.71362305 105.01196289 C7.86596645 113.93111404 5.35413767 122.49227009 2.50585938 131.14160156 C0.51699325 137.2225274 -1.05174089 143.22717815 -2.38671875 149.484375 C-3.17355781 152.71191867 -4.21426311 155.20493357 -6 158 C-9.40376894 159.70188447 -13.18675899 159.18458114 -16.9375 159.1875 C-17.76185547 159.19974609 -18.58621094 159.21199219 -19.43554688 159.22460938 C-20.22896484 159.22654297 -21.02238281 159.22847656 -21.83984375 159.23046875 C-22.56550537 159.23457764 -23.29116699 159.23868652 -24.03881836 159.24291992 C-26 159 -26 159 -29 157 C-29 156.01 -29 155.02 -29 154 C-29.79664063 154.27714844 -30.59328125 154.55429688 -31.4140625 154.83984375 C-32.47367187 155.20207031 -33.53328125 155.56429687 -34.625 155.9375 C-36.19121094 156.47697266 -36.19121094 156.47697266 -37.7890625 157.02734375 C-44.74800526 159.13534466 -51.46860155 159.21437311 -58.6875 159.25 C-60.22567383 159.2809375 -60.22567383 159.2809375 -61.79492188 159.3125 C-82.2000854 159.41562148 -101.12043628 149.23439429 -115.4375 135.1875 C-129 121.45509533 -129 121.45509533 -129 114 C-129.66 114 -130.32 114 -131 114 C-140.7393197 89.88482275 -141.16799714 65.20068347 -131.3125 41.03125 C-123.19472766 22.28306149 -110.02554133 7.69363298 -92 -2 C-91.14792969 -2.47953125 -90.29585937 -2.9590625 -89.41796875 -3.453125 C-63.3144058 -17.45374358 -24.84998621 -16.56665747 0 0 Z " fill="#FEFDFC" transform="translate(213,95)"/>
<path d="M0 0 C100.98 0 201.96 0 306 0 C306 109.89 306 219.78 306 333 C205.02 333 104.04 333 0 333 C0 223.11 0 113.22 0 0 Z M11.04296875 28.52734375 C5.77266102 36.84955718 4.70047332 44.70266515 4.73930359 54.35447693 C4.73547804 55.37176677 4.73165249 56.38905662 4.72771102 57.43717343 C4.71742492 60.83243636 4.72136485 64.2275288 4.7253418 67.62280273 C4.72099293 70.06255245 4.7158092 72.5023008 4.70985413 74.94204712 C4.69786125 80.87295333 4.69531034 86.80381752 4.69765439 92.73473125 C4.6994403 97.55712293 4.69768206 102.3795009 4.69342995 107.20189095 C4.69283476 107.88927347 4.69223957 108.57665599 4.69162634 109.28486829 C4.69041454 110.68145744 4.68920041 112.07804658 4.68798397 113.47463573 C4.67711803 126.55946525 4.67926655 139.64426897 4.68536881 152.72909994 C4.69053819 164.68885097 4.6792803 176.64852057 4.66027059 188.6082555 C4.64088049 200.90196484 4.63263818 213.19563567 4.63639385 225.48936039 C4.63830398 232.3859898 4.63583663 239.28254989 4.62167931 246.17916679 C4.60850087 252.66429102 4.61104143 259.14929306 4.62409019 265.63441849 C4.6264563 268.0123926 4.62372009 270.39037818 4.61546707 272.76833916 C4.60500128 276.01859487 4.61309943 279.26830323 4.6257782 282.51853943 C4.61840391 283.45571302 4.61102963 284.39288662 4.60343188 285.35845941 C4.6988987 297.02068615 8.85376777 304.76772052 16.953125 312.98046875 C25.70572799 321.06111994 33.70663149 323.14733382 45.36610413 323.15390015 C46.31337716 323.1582824 47.26065019 323.16266465 48.23662847 323.1671797 C51.41304407 323.18054166 54.58943194 323.18674074 57.76586914 323.19287109 C60.04267501 323.20077414 62.31947964 323.20904322 64.59628296 323.21765137 C72.07589526 323.24384905 79.55551309 323.25917724 87.03515625 323.2734375 C89.61194805 323.27879819 92.18873981 323.28417571 94.76553154 323.28956985 C105.4860813 323.31119567 116.20662782 323.33008242 126.92719364 323.34119225 C129.70691494 323.34412167 132.48663621 323.34708337 135.26635742 323.35009766 C136.30261444 323.35121673 136.30261444 323.35121673 137.35980593 323.35235842 C148.54178324 323.36500217 159.72360118 323.39821486 170.90550406 323.43989949 C182.40021496 323.48239701 193.89481967 323.50548913 205.38961118 323.51111281 C211.83766118 323.51476227 218.2854409 323.52674117 224.7334156 323.55921555 C230.80328127 323.58934769 236.87271384 323.59558929 242.9426384 323.58383179 C245.16456023 323.58361148 247.38650247 323.5918804 249.60835457 323.60948563 C265.32483077 323.7271912 276.96915898 322.93148551 288.80859375 311.453125 C297.30509319 301.94189211 300.47633477 291.22646477 300.3742218 278.65730286 C300.37819621 277.6654779 300.38217061 276.67365294 300.38626546 275.65177268 C300.39582892 272.35469453 300.38410643 269.05805189 300.37231445 265.76098633 C300.37474433 263.38666118 300.37846555 261.01233706 300.38337708 258.63801575 C300.39276127 252.20853595 300.38338211 245.77920905 300.37004495 239.34974122 C300.35857012 233.29895695 300.36234571 227.24817294 300.36424746 221.19738122 C300.36743191 209.21041916 300.35579955 197.22351667 300.33618164 185.23657227 C300.31716704 173.61513456 300.31009811 161.99376661 300.31567383 150.37231445 C300.3217354 137.70082901 300.32154861 125.02937417 300.310188 112.35789126 C300.30898076 111.00619455 300.30777477 109.65449784 300.30657005 108.30280113 C300.30596651 107.63782131 300.30536298 106.97284149 300.30474115 106.28771076 C300.3008673 101.6090929 300.30131354 96.93049031 300.3031559 92.25187111 C300.30503953 85.95386722 300.29692902 79.65595278 300.2810955 73.35796928 C300.27685354 71.04688512 300.27600151 68.73579188 300.27878571 66.42470551 C300.28200938 63.2702876 300.27292083 60.11613668 300.26069641 56.96174622 C300.26447573 56.04734782 300.26825506 55.13294942 300.27214891 54.19084197 C300.23699923 49.06349853 299.65169664 44.85937698 298 40 C297.78859375 39.28972656 297.5771875 38.57945313 297.359375 37.84765625 C294.07545534 28.2274557 287.61109244 21.40901472 278.62890625 16.77734375 C273.72188822 14.52930101 269.32587279 12.8796134 263.88127708 12.86577892 C263.06436531 12.86132108 262.24745354 12.85686324 261.40578687 12.85227031 C260.51377753 12.85245467 259.6217682 12.85263903 258.70272827 12.85282898 C257.75081498 12.84915229 256.79890168 12.8454756 255.81814253 12.8416875 C252.62012995 12.83065164 249.42214987 12.82680697 246.22412109 12.82299805 C243.93436581 12.81673331 241.64461155 12.8100865 239.3548584 12.80308533 C231.8277253 12.78204326 224.300592 12.7716826 216.7734375 12.76171875 C214.18205377 12.75767121 211.59067016 12.75355429 208.99928665 12.74936867 C198.2195808 12.73249964 187.43987865 12.71786517 176.66016197 12.71061993 C173.86409885 12.70871014 171.06803574 12.70678979 168.27197266 12.70483398 C167.57705391 12.70435024 166.88213516 12.7038665 166.16615827 12.7033681 C154.91489469 12.69507199 143.66373757 12.66974138 132.41252045 12.63725331 C120.85231171 12.60414609 109.292173 12.58650035 97.73191512 12.58297569 C91.24483416 12.58062549 84.75792149 12.57166869 78.27088547 12.54651451 C72.16578865 12.52322397 66.06097081 12.51900475 59.95584106 12.52927589 C57.71857398 12.52977112 55.48129312 12.52345454 53.24406815 12.50971985 C50.18210423 12.49197805 47.12113905 12.49911888 44.05917358 12.51225281 C43.18054858 12.50128356 42.30192357 12.49031432 41.39667356 12.47901267 C29.08717409 12.60588246 18.5329279 18.85468193 11.04296875 28.52734375 Z " fill="#FEFAF8" transform="translate(0,0)"/>
<path d="M0 0 C0.66 0.33 1.32 0.66 2 1 C-0.97 3.97 -3.94 6.94 -7 10 C-7.66 9.67 -8.32 9.34 -9 9 C-6.31941902 5.42589203 -3.57410797 2.68058098 0 0 Z " fill="#FD8B42" transform="translate(21,19)"/>
</svg>
