<?xml version="1.0" encoding="utf-8"?>
<svg viewBox="0 0 1377 124" xmlns="http://www.w3.org/2000/svg">
  <defs>
    <linearGradient gradientUnits="userSpaceOnUse" x1="-0.024" y1="-0.07" x2="-0.024" y2="124.291" id="gradient-0" spreadMethod="pad">
      <stop offset="0" style="stop-color: rgb(83.922% 14.51% 14.51%)"/>
      <stop offset="1" style="stop-color: rgb(56.157% 0% 2.5763%)"/>
    </linearGradient>
    <linearGradient gradientUnits="userSpaceOnUse" x1="18.077" y1="-0.113" x2="18.077" y2="123.559" id="gradient-1" spreadMethod="pad">
      <stop offset="0" style="stop-color: rgb(83.922% 14.51% 14.51%)"/>
      <stop offset="1" style="stop-color: rgb(56.157% 0% 2.5763%)"/>
    </linearGradient>
    <linearGradient gradientUnits="userSpaceOnUse" x1="18.12" y1="-0.113" x2="18.12" y2="123.171" id="gradient-2" spreadMethod="pad">
      <stop offset="0" style="stop-color: rgb(83.922% 14.51% 14.51%)"/>
      <stop offset="1" style="stop-color: rgb(56.157% 0% 2.5763%)"/>
    </linearGradient>
    <linearGradient gradientUnits="userSpaceOnUse" x1="-18.829" y1="-0.039" x2="-18.829" y2="124" id="gradient-3" spreadMethod="pad">
      <stop offset="0" style="stop-color: rgb(83.922% 14.51% 14.51%)"/>
      <stop offset="1" style="stop-color: rgb(56.157% 0% 2.5763%)"/>
    </linearGradient>
    <linearGradient gradientUnits="userSpaceOnUse" x1="2.876" y1="0" x2="2.876" y2="18.465" id="gradient-4" spreadMethod="pad">
      <stop offset="0" style="stop-color: rgb(83.922% 14.51% 14.51%)"/>
      <stop offset="1" style="stop-color: rgb(56.157% 0% 2.5763%)"/>
    </linearGradient>
    <linearGradient gradientUnits="userSpaceOnUse" x1="-35.948" y1="-0.078" x2="-35.948" y2="123.736" id="gradient-5" spreadMethod="pad">
      <stop offset="0" style="stop-color: rgb(83.922% 14.51% 14.51%)"/>
      <stop offset="1" style="stop-color: rgb(56.157% 0% 2.5763%)"/>
    </linearGradient>
    <linearGradient gradientUnits="userSpaceOnUse" x1="-24.88" y1="-6.611" x2="-24.88" y2="84.269" id="gradient-6" spreadMethod="pad">
      <stop offset="0" style="stop-color: rgb(83.922% 14.51% 14.51%)"/>
      <stop offset="1" style="stop-color: rgb(56.157% 0% 2.5763%)"/>
    </linearGradient>
    <linearGradient gradientUnits="userSpaceOnUse" x1="18.802" y1="-0.039" x2="18.802" y2="123.986" id="gradient-7" spreadMethod="pad">
      <stop offset="0" style="stop-color: rgb(83.922% 14.51% 14.51%)"/>
      <stop offset="1" style="stop-color: rgb(56.157% 0% 2.5763%)"/>
    </linearGradient>
    <linearGradient gradientUnits="userSpaceOnUse" x1="18.741" y1="-0.031" x2="18.741" y2="123.717" id="gradient-8" spreadMethod="pad">
      <stop offset="0" style="stop-color: rgb(83.922% 14.51% 14.51%)"/>
      <stop offset="1" style="stop-color: rgb(56.157% 0% 2.5763%)"/>
    </linearGradient>
    <linearGradient gradientUnits="userSpaceOnUse" x1="0.461" y1="-0.002" x2="0.461" y2="18.479" id="gradient-9" spreadMethod="pad">
      <stop offset="0" style="stop-color: rgb(83.922% 14.51% 14.51%)"/>
      <stop offset="1" style="stop-color: rgb(56.157% 0% 2.5763%)"/>
    </linearGradient>
    <linearGradient gradientUnits="userSpaceOnUse" x1="-28.44" y1="-9.733" x2="-28.44" y2="82.343" id="gradient-10" spreadMethod="pad">
      <stop offset="0" style="stop-color: rgb(83.922% 14.51% 14.51%)"/>
      <stop offset="1" style="stop-color: rgb(56.157% 0% 2.5763%)"/>
    </linearGradient>
    <linearGradient gradientUnits="userSpaceOnUse" x1="-4" y1="-0.395" x2="-4" y2="91.04" id="gradient-11" spreadMethod="pad">
      <stop offset="0" style="stop-color: rgb(83.922% 14.51% 14.51%)"/>
      <stop offset="1" style="stop-color: rgb(56.157% 0% 2.5763%)"/>
    </linearGradient>
    <linearGradient gradientUnits="userSpaceOnUse" x1="14.349" y1="-0.3" x2="14.349" y2="91.241" id="gradient-12" spreadMethod="pad">
      <stop offset="0" style="stop-color: rgb(83.922% 14.51% 14.51%)"/>
      <stop offset="1" style="stop-color: rgb(56.157% 0% 2.5763%)"/>
    </linearGradient>
    <linearGradient gradientUnits="userSpaceOnUse" x1="-29.019" y1="-9.657" x2="-29.019" y2="82.006" id="gradient-13" spreadMethod="pad">
      <stop offset="0" style="stop-color: rgb(83.922% 14.51% 14.51%)"/>
      <stop offset="1" style="stop-color: rgb(56.157% 0% 2.5763%)"/>
    </linearGradient>
    <linearGradient gradientUnits="userSpaceOnUse" x1="0.245" y1="-0.002" x2="0.245" y2="91.635" id="gradient-14" spreadMethod="pad">
      <stop offset="0" style="stop-color: rgb(83.922% 14.51% 14.51%)"/>
      <stop offset="1" style="stop-color: rgb(56.157% 0% 2.5763%)"/>
    </linearGradient>
    <linearGradient gradientUnits="userSpaceOnUse" x1="32.59" y1="-0.46" x2="32.59" y2="91.259" id="gradient-15" spreadMethod="pad">
      <stop offset="0" style="stop-color: rgb(83.922% 14.51% 14.51%)"/>
      <stop offset="1" style="stop-color: rgb(56.157% 0% 2.5763%)"/>
    </linearGradient>
    <linearGradient gradientUnits="userSpaceOnUse" x1="-3.376" y1="-0.339" x2="-3.376" y2="91.22" id="gradient-16" spreadMethod="pad">
      <stop offset="0" style="stop-color: rgb(83.922% 14.51% 14.51%)"/>
      <stop offset="1" style="stop-color: rgb(56.157% 0% 2.5763%)"/>
    </linearGradient>
    <linearGradient gradientUnits="userSpaceOnUse" x1="-30.253" y1="-10.673" x2="-30.253" y2="81.105" id="gradient-17" spreadMethod="pad">
      <stop offset="0" style="stop-color: rgb(83.922% 14.51% 14.51%)"/>
      <stop offset="1" style="stop-color: rgb(56.157% 0% 2.5763%)"/>
    </linearGradient>
    <linearGradient gradientUnits="userSpaceOnUse" x1="21.941" y1="-0.529" x2="21.941" y2="91.241" id="gradient-18" spreadMethod="pad">
      <stop offset="0" style="stop-color: rgb(83.922% 14.51% 14.51%)"/>
      <stop offset="1" style="stop-color: rgb(56.157% 0% 2.5763%)"/>
    </linearGradient>
    <linearGradient gradientUnits="userSpaceOnUse" x1="-3.772" y1="-0.32" x2="-3.772" y2="90.322" id="gradient-19" spreadMethod="pad">
      <stop offset="0" style="stop-color: rgb(83.922% 14.51% 14.51%)"/>
      <stop offset="1" style="stop-color: rgb(56.157% 0% 2.5763%)"/>
    </linearGradient>
  </defs>
  <path d="M0 0 C1.18078125 -0.02320312 2.3615625 -0.04640625 3.578125 -0.0703125 C15.94521957 0.01140839 25.00956863 4.94189291 33.8125 13.40625 C42.62582205 22.84909505 46.88808479 33.97809657 46.453125 46.94921875 C46 49.75 46 49.75 43.8125 53 C40.96802498 54.76989557 39.33660297 55.66658493 36 55.75 C31.93727444 54.68595283 30.16560024 53.3015844 28 49.75 C27.31300628 47.15905225 26.72301274 44.62007929 26.1875 42 C24.32435836 33.8301331 21.66932563 28.65488279 15 23.375 C7.60520529 19.3694862 -0.34030907 18.15632752 -8.56640625 20.47265625 C-16.34639451 23.72419111 -21.27927147 28.17073819 -25 35.75 C-25.86615626 38.58122256 -26.13799586 41.14591462 -26.17700195 44.1003418 C-26.18983719 44.95190353 -26.20267242 45.80346527 -26.21589661 46.68083191 C-26.22328354 47.59439957 -26.23067047 48.50796722 -26.23828125 49.44921875 C-26.246353 50.39883987 -26.25442474 51.348461 -26.26274109 52.32685852 C-26.27656016 54.33662096 -26.28729203 56.34640665 -26.29516602 58.35620117 C-26.30667204 60.40151902 -26.32710192 62.44680716 -26.35668945 64.49194336 C-26.3995721 67.45707477 -26.41556484 70.42131489 -26.42578125 73.38671875 C-26.44328934 74.29016525 -26.46079742 75.19361176 -26.47883606 76.12443542 C-26.45343436 83.65509976 -24.21603758 89.13867951 -20.3125 95.5 C-13.88793636 101.75092678 -6.51542701 104.13495342 2.2734375 104.03125 C9.55327889 103.2803208 15.98786844 100.00080449 21 94.75 C21.76593208 93.38342114 22.48662096 91.99066268 23.1640625 90.578125 C23.51162598 89.86043945 23.85918945 89.14275391 24.21728516 88.40332031 C24.47558105 87.85772461 24.73387695 87.31212891 25 86.75 C24.14768799 86.77618408 23.29537598 86.80236816 22.41723633 86.8293457 C19.23972873 86.91481492 16.0628089 86.97736789 12.88452148 87.0246582 C11.51192898 87.04972617 10.13946898 87.08379082 8.76733398 87.12719727 C6.78949304 87.18817531 4.81065816 87.21361009 2.83203125 87.23828125 C1.04889526 87.27755737 1.04889526 87.27755737 -0.77026367 87.31762695 C-4.93385198 86.58587528 -6.38223339 84.98983412 -9 81.75 C-9.83799846 78.6634591 -9.64817908 75.87410638 -9 72.75 C-7.12379387 70.24839182 -5.76108697 69.13054348 -3 67.75 C-1.63244749 67.65094508 -0.26027753 67.61172928 1.11083984 67.60473633 C1.95867035 67.59835648 2.80650085 67.59197662 3.68002319 67.58540344 C4.59772491 67.58429062 5.51542664 67.5831778 6.4609375 67.58203125 C7.87410751 67.57703865 7.87410751 67.57703865 9.31582642 67.57194519 C11.31145743 67.56687657 13.30709693 67.56453684 15.30273438 67.56469727 C18.35561115 67.56251387 21.40812486 67.54436597 24.4609375 67.52539062 C26.39843626 67.52245608 28.33593674 67.52047169 30.2734375 67.51953125 C31.18709076 67.51234573 32.10074402 67.50516022 33.04208374 67.49775696 C33.89621857 67.50083359 34.75035339 67.50391022 35.63037109 67.50708008 C36.37934662 67.50565506 37.12832214 67.50423004 37.8999939 67.50276184 C40.35994594 67.7923772 41.90982527 68.42684496 44 69.75 C47.42027347 74.8804102 46.48996616 80.76497035 46 86.75 C43.47243029 99.29703768 36.2344945 109.24135943 26 116.75 C14.4441464 123.80194172 1.05356159 125.9131135 -12.1953125 123.0625 C-14.92328522 122.12985975 -17.42637697 121.04694389 -20 119.75 C-20.84949219 119.3375 -21.69898437 118.925 -22.57421875 118.5 C-33.86006317 112.41635952 -40.84233576 102.7155375 -45.03759766 90.80395508 C-46.45901719 85.7276214 -46.34405246 80.60456526 -46.37109375 75.3671875 C-46.38012222 74.2759256 -46.3891507 73.1846637 -46.39845276 72.06033325 C-46.41292109 69.75574469 -46.42183347 67.45111537 -46.42553711 65.14648438 C-46.43739187 61.65682935 -46.48657939 58.16896785 -46.53710938 54.6796875 C-46.65935928 37.8578148 -45.06677417 25.27800087 -33.0390625 12.69921875 C-23.26151265 3.32759606 -13.43743521 -0.2640544 0 0 Z " transform="matrix(1, 0, 0, 1, 47.00000000000006, -0.75)" style="fill-rule: nonzero; fill: url('#gradient-0'); paint-order: stroke;"/>
  <path d="M0 0 C1.06992188 -0.03738281 2.13984375 -0.07476563 3.2421875 -0.11328125 C6.125 0.3125 6.125 0.3125 7.77319336 1.94555664 C9.50062245 4.97019543 9.55478413 7.13534725 9.63671875 10.609375 C9.68989258 12.41728516 9.68989258 12.41728516 9.74414062 14.26171875 C9.76669922 15.51597656 9.78925781 16.77023438 9.8125 18.0625 C9.86374023 19.96708984 9.86374023 19.96708984 9.91601562 21.91015625 C9.99849001 25.04418274 10.06764484 28.17792955 10.125 31.3125 C11.04313477 31.3218457 11.96126953 31.33119141 12.90722656 31.34082031 C16.32205278 31.38489931 19.73563108 31.44653732 23.14990234 31.52001953 C24.62602196 31.54820088 26.10229169 31.56942966 27.57861328 31.58349609 C29.70423057 31.60496698 31.82804879 31.65163043 33.953125 31.703125 C35.2309082 31.72407227 36.50869141 31.74501953 37.82519531 31.76660156 C41.63769272 32.39731658 42.79547672 33.30089004 45.125 36.3125 C46.67524464 39.41298928 46.41492015 41.89144218 46.125 45.3125 C43.98820715 48.70189556 42.9475233 50.03832557 39.125 51.3125 C36.8411483 51.39628628 34.554899 51.41979915 32.26953125 51.41015625 C31.60789474 51.4087413 30.94625824 51.40732635 30.26457214 51.40586853 C28.15550172 51.40027996 26.04653823 51.38772965 23.9375 51.375 C22.50586091 51.36998352 21.07422015 51.36542087 19.64257812 51.36132812 C16.13668412 51.3503143 12.6308525 51.33305755 9.125 51.3125 C9.20670538 55.77153699 9.31947541 60.22928816 9.4375 64.6875 C9.46005859 65.93917969 9.48261719 67.19085938 9.50585938 68.48046875 C9.7863635 78.22161183 10.63421912 87.59373354 17.125 95.3125 C22.50174019 100.19617668 27.39380741 102.60098732 34.64453125 103.69140625 C41.52068934 104.80890778 41.52068934 104.80890778 44.75 107.5 C46.51691844 111.11415135 46.69357278 113.33249057 46.125 117.3125 C44.32937595 120.06579021 43.07245078 121.83877461 40.125 123.3125 C26.86893671 124.62947046 16.31944104 120.62434392 6.125 112.3125 C5.16980469 111.56226562 5.16980469 111.56226562 4.1953125 110.796875 C-4.17545569 103.43059899 -8.45748778 92.1374481 -9.875 81.3125 C-10.17065306 75.57610354 -10.18143317 69.84834495 -10.17578125 64.10546875 C-10.17967523 62.45021966 -10.18401133 60.79497157 -10.18876648 59.13972473 C-10.19618721 55.68955221 -10.19596554 52.23948213 -10.19067383 48.78930664 C-10.18485238 44.37317368 -10.20189429 39.95745649 -10.2250185 35.54139233 C-10.23975243 32.13128724 -10.24062857 28.72128278 -10.23750877 25.3111515 C-10.2380211 23.68248985 -10.24324213 22.05382243 -10.25332069 20.42519188 C-10.26567597 18.1519183 -10.25890212 15.87946193 -10.24731445 13.60620117 C-10.24794388 12.31509933 -10.2485733 11.0239975 -10.2492218 9.69377136 C-9.44056845 2.38720501 -6.88432262 0.15683709 0 0 Z " transform="matrix(1, 0, 0, 1, 212.875, -0.3125)" style="fill: url('#gradient-1'); paint-order: stroke;"/>
  <path d="M0 0 C1.06992187 -0.03738281 2.13984375 -0.07476563 3.2421875 -0.11328125 C6.125 0.3125 6.125 0.3125 7.85009766 1.88574219 C9.62052591 5.25572626 8.96489462 7.95470005 8.40625 11.56640625 C7.09860125 23.70128504 5.95656005 36.15292229 13.578125 46.45019531 C22.4032979 57.08513899 33.02168484 66.24719081 43.68273926 74.99223328 C46.19866778 77.2953513 46.15475162 78.61497484 46.5 82.125 C46.45550255 85.62122831 46.16049228 86.26483893 43.9375 89.25 C41.04101149 91.37409157 39.69364987 92.3125 36.125 92.3125 C29.67497428 89.99360858 25.56714916 85.01615273 20.9375 80.1875 C19.34445569 78.53460511 17.74699848 76.88594857 16.14453125 75.2421875 C15.09422729 74.14753174 15.09422729 74.14753174 14.02270508 73.03076172 C12.1390834 71.09367653 12.1390834 71.09367653 9.125 70.3125 C9.13388245 70.90496521 9.14276489 71.49743042 9.1519165 72.10784912 C9.24038296 78.27199662 9.30073126 84.43596393 9.34472656 90.60058594 C9.36484688 92.90144169 9.39214634 95.20224629 9.42675781 97.50292969 C9.47525612 100.80937317 9.49796478 104.11514085 9.515625 107.421875 C9.53627014 108.45117126 9.55691528 109.48046753 9.57818604 110.54095459 C9.58043265 117.68472883 9.58043265 117.68472883 7.22558594 120.93066406 C3.24415725 123.54978149 0.90430223 123.39898679 -3.74609375 122.82421875 C-5.875 122.3125 -5.875 122.3125 -7.875 120.4375 C-9.44226504 117.10706179 -10.00182165 114.48534204 -10.01544189 110.84732056 C-10.02115204 109.93327957 -10.02686218 109.01923859 -10.03274536 108.07749939 C-10.03386322 107.07690994 -10.03498108 106.0763205 -10.03613281 105.04541016 C-10.04109772 103.98986435 -10.04606262 102.93431854 -10.05117798 101.8467865 C-10.06580567 98.34837192 -10.0726023 94.85000266 -10.078125 91.3515625 C-10.08387552 88.92402139 -10.08963326 86.49648029 -10.09539795 84.06893921 C-10.10590937 78.97629586 -10.11175126 73.8836683 -10.11523438 68.79101562 C-10.12072234 62.26166127 -10.14475644 55.7325151 -10.17320633 49.20322609 C-10.1918176 44.18811429 -10.19703749 39.17305281 -10.19857025 34.15790939 C-10.20160022 31.75053137 -10.20964028 29.3431543 -10.22275543 26.93581009 C-10.23978553 23.56983782 -10.23794298 20.20437662 -10.23144531 16.83837891 C-10.2406601 15.84183792 -10.24987488 14.84529694 -10.2593689 13.81855774 C-10.20876017 5.46111744 -9.03088135 0.2057395 0 0 Z " transform="matrix(1, 0, 0, 1, 326.87500000000006, -0.3125)" style="fill: url('#gradient-2'); paint-order: stroke;"/>
  <path d="M0 0 C1.04285156 -0.01289063 2.08570313 -0.02578125 3.16015625 -0.0390625 C5.9375 0.625 5.9375 0.625 7.58583069 2.4934082 C9.57850281 7.11009634 9.36349416 11.41588926 9.34155273 16.39453125 C9.34841599 17.47962982 9.35527924 18.56472839 9.36235046 19.68270874 C9.38064467 23.26777243 9.37677741 26.85239967 9.37109375 30.4375 C9.37565393 32.92944481 9.38095901 35.42138836 9.38697815 37.91333008 C9.3970585 43.80401966 9.39094242 49.69455375 9.37972456 55.58523655 C9.37253975 60.28056504 9.38333732 64.97561501 9.40405273 69.67089844 C9.43228727 76.14765121 9.44101497 82.62411284 9.43382454 89.10092163 C9.43367103 91.5696995 9.43973981 94.03848581 9.45211601 96.50723267 C9.46697448 99.95698237 9.45638602 103.40575002 9.43920898 106.85546875 C9.44887695 107.87691986 9.45854492 108.89837097 9.46850586 109.95077515 C9.4224073 114.36665368 9.3775209 116.90701945 7.03114319 120.7355957 C4.31390314 123.18776379 3.31985778 123.58171421 -0.375 124 C-4.0625 123.625 -4.0625 123.625 -6.9375 121.25 C-9.0625 118.625 -9.0625 118.625 -10.0625 116.625 C-9.79534307 114.70404109 -9.48214681 112.78942818 -9.1484375 110.87890625 C-7.90174543 99.96020318 -7.38567698 89.89257557 -14.52441406 80.84326172 C-20.39816258 74.10569152 -26.91852957 68.06495666 -33.57568359 62.11547852 C-34.37489227 61.39981216 -35.17410095 60.68414581 -35.99752808 59.9467926 C-37.52592294 58.5971687 -39.07249386 57.26776835 -40.63894653 55.96250916 C-44.13911192 52.94458395 -45.84437508 51.3990433 -47.12695312 46.84765625 C-47.03327063 42.16353161 -45.29529009 39.85779009 -42.0625 36.625 C-38.30517406 35.2294218 -35.76261905 35.71984152 -32.14672852 37.34350586 C-27.5013954 40.19970283 -23.88141786 44.40753938 -20.125 48.3125 C-18.81305664 49.65151367 -18.81305664 49.65151367 -17.47460938 51.01757812 C-15.32786724 53.21124359 -13.19105579 55.4137077 -11.0625 57.625 C-11.05885437 56.9846431 -11.05520874 56.34428619 -11.05145264 55.68452454 C-11.00962802 49.01693487 -10.94028228 42.35003358 -10.85498047 35.68286133 C-10.82676248 33.19497565 -10.80555213 30.70700018 -10.79150391 28.21899414 C-10.77008679 24.64162193 -10.7234398 21.06533027 -10.671875 17.48828125 C-10.67064636 16.37665115 -10.66941772 15.26502106 -10.66815186 14.1197052 C-10.52221506 6.41751417 -10.52221506 6.41751417 -8.20629883 2.42504883 C-5.37907422 0.05115895 -3.66059947 -0.04536059 0 0 Z " transform="matrix(1, 0, 0, 1, 401.06250000000006, -0.625)" style="fill: url('#gradient-3'); paint-order: stroke;"/>
  <path d="M0 0 C1.051875 0.0103125 2.10375 0.020625 3.1875 0.03125 C4.7653125 0.01578125 4.7653125 0.01578125 6.375 0 C9.1875 0.53125 9.1875 0.53125 11.03515625 2.31640625 C12.78315096 5.67611134 12.82516226 8.87918433 12.1875 12.53125 C10.625 15.46875 10.625 15.46875 8.1875 17.53125 C4.32584846 18.65463954 2.18012141 18.9373224 -1.5625 17.40625 C-4.15348512 15.24709574 -5.50689223 13.65020189 -6.8125 10.53125 C-6.60279274 5.39342214 -5.48165577 1.03542387 0 0 Z " transform="matrix(1, 0, 0, 1, 425.81250000000006, -0.5312499403953552)" style="fill: url('#gradient-4'); paint-order: stroke;"/>
  <path d="M0 0 C1.45212891 -0.03867188 1.45212891 -0.03867188 2.93359375 -0.078125 C5.5625 0.25 5.5625 0.25 7.34765625 1.640625 C9.46903476 4.45093994 9.69156379 6.24459973 9.70967102 9.70881653 C9.71682632 10.64672531 9.72398163 11.58463409 9.73135376 12.55096436 C9.73404266 13.58320129 9.73673157 14.61543823 9.73950195 15.67895508 C9.74607315 16.76361557 9.75264435 17.84827606 9.75941467 18.96580505 C9.77917885 22.56704776 9.79081669 26.16824872 9.80078125 29.76953125 C9.80485678 30.99710333 9.8089323 32.22467541 9.81313133 33.48944664 C9.83185059 39.31522291 9.84641392 45.1409827 9.8547433 50.96678334 C9.86451489 57.69021206 9.89083185 64.41331147 9.93124419 71.13662416 C9.96504973 76.96079184 9.97688886 82.78484907 9.98094749 88.60910606 C9.98582724 91.0862724 9.9974804 93.56343486 10.01598549 96.04053688 C10.04025892 99.5049136 10.03943315 102.96842611 10.0324707 106.43286133 C10.04528076 107.45902557 10.05809082 108.48518982 10.07128906 109.54244995 C10.03879029 113.97168589 10.00810944 116.52144704 7.65812683 120.36357117 C4.92306332 122.82560429 3.9740215 123.21117722 0.25 123.5625 C-4.04172883 123.19879417 -5.43662082 122.25087918 -8.4375 119.25 C-9.0975 118.26 -9.7575 117.27 -10.4375 116.25 C-11.38109375 116.75660156 -11.38109375 116.75660156 -12.34375 117.2734375 C-24.45441835 123.58411709 -37.44105497 125.67154052 -50.75 121.75 C-63.23099116 116.93396537 -72.8830824 107.7451728 -78.4375 95.66796875 C-82.71127103 85.33412397 -83.18827645 73.10489469 -79.40625 62.51171875 C-74.21517821 50.39224065 -66.38136895 41.16582234 -54.4375 35.25 C-42.95743706 30.87293394 -29.83076287 30.43392043 -18.4375 35.25 C-15.75386115 36.55062044 -13.0914622 37.88995662 -10.4375 39.25 C-10.41768066 38.24098633 -10.39786133 37.23197266 -10.37744141 36.19238281 C-10.30126664 32.44245804 -10.21256784 28.69291529 -10.12011719 24.94335938 C-10.08187642 23.32169141 -10.04701497 21.69994004 -10.015625 20.078125 C-9.96986743 17.74448883 -9.91189184 15.41142438 -9.8515625 13.078125 C-9.84001129 12.35506165 -9.82846008 11.63199829 -9.81655884 10.88702393 C-9.70980294 7.2313512 -9.56935393 4.30145862 -7.4375 1.25 C-4.85741408 -0.04004296 -2.88008426 0.04589776 0 0 Z M-56.0703125 60.07421875 C-61.8156256 67.35994189 -63.46490956 74.01615654 -62.4375 83.25 C-60.51423515 90.14534161 -56.53051349 96.65038332 -50.4140625 100.53515625 C-43.47503542 104.13364799 -36.5270053 105.65822402 -28.83984375 103.53125 C-20.51537369 100.41742108 -15.60843455 96.25850885 -11.41796875 88.43359375 C-8.40099611 81.71451921 -8.56537142 74.90537801 -11.125 68.0625 C-14.68267547 60.08243627 -19.5698558 55.78269892 -27.4375 52.25 C-37.63840768 49.10059355 -48.90521153 52.06918968 -56.0703125 60.07421875 Z " transform="matrix(1, 0, 0, 1, 685.4375, -0.25)" style="fill: url('#gradient-5'); paint-order: stroke;"/>
  <path d="M0 0 C0.85980469 0.63292969 1.71960938 1.26585937 2.60546875 1.91796875 C3.31058594 2.39621094 4.01570312 2.87445313 4.7421875 3.3671875 C13.97924553 10.36010128 18.77058456 21.11971092 21.35546875 32.10546875 C21.43796875 33.03359375 21.52046875 33.96171875 21.60546875 34.91796875 C21.68023438 35.55347656 21.755 36.18898437 21.83203125 36.84375 C22.11105461 40.74273427 21.83225424 43.19949054 19.41796875 46.35546875 C15.40852478 50.0085177 15.40852478 50.0085177 11.60546875 49.91796875 C5.14561474 47.72818773 5.14561474 47.72818773 2.60546875 43.91796875 C2.27767804 42.05208318 2.01417869 40.17446865 1.79296875 38.29296875 C0.47040519 29.86925624 -2.70545947 23.41515335 -9.5234375 18.13671875 C-16.05139679 13.88468681 -22.69400392 12.94470766 -30.39453125 13.91796875 C-39.52959931 16.44827879 -44.84135154 20.45366236 -49.57421875 28.6015625 C-50.60899353 31.52356938 -50.25142469 32.95948355 -49.39453125 35.91796875 C-48.05630259 37.82106227 -48.05630259 37.82106227 -46.26757812 39.4831543 C-45.61019653 40.13700607 -44.95281494 40.79085785 -44.2755127 41.46452332 C-43.56197632 42.1542775 -42.84843994 42.84403168 -42.11328125 43.5546875 C-41.38459839 44.2753389 -40.65591553 44.9959903 -39.90515137 45.73847961 C-37.57753623 48.03710704 -35.23669671 50.32167726 -32.89453125 52.60546875 C-30.55501557 54.90251323 -28.2183152 57.20235421 -25.88391113 59.5045929 C-24.4306719 60.93609058 -22.97396868 62.36408154 -21.5135498 63.78825378 C-20.85616821 64.43264908 -20.19878662 65.07704437 -19.52148438 65.7409668 C-18.94047974 66.307686 -18.3594751 66.87440521 -17.76086426 67.45829773 C-15.75647841 69.59960876 -15.40743082 70.7728486 -15.14453125 73.73046875 C-15.42746885 77.33792317 -16.24018803 79.04551112 -18.39453125 81.91796875 C-22.23761889 84.48002717 -23.82856165 84.5916364 -28.39453125 83.91796875 C-30.22914124 82.61358643 -30.22914124 82.61358643 -32.12133789 80.88378906 C-32.82050323 80.24662964 -33.51966858 79.60947021 -34.24002075 78.95300293 C-37.73576662 75.6511103 -41.17524261 72.29981086 -44.578125 68.90234375 C-45.31909927 68.16469788 -46.06007355 67.427052 -46.82350159 66.66705322 C-48.37346445 65.12211464 -49.92211057 63.57585398 -51.46948242 62.02832031 C-53.84469519 59.65531659 -56.2278234 57.29045274 -58.61132812 54.92578125 C-60.12158195 53.41845774 -61.63136477 51.91066213 -63.140625 50.40234375 C-63.85407578 49.69607849 -64.56752655 48.98981323 -65.30259705 48.262146 C-65.95740555 47.60426086 -66.61221405 46.94637573 -67.28686523 46.26855469 C-67.86452133 45.69232361 -68.44217743 45.11609253 -69.03733826 44.5223999 C-71.5906463 41.50395891 -71.73824492 38.18473492 -71.66796875 34.34765625 C-70.28928456 22.09706241 -63.46003916 10.37930374 -53.91015625 2.7109375 C-53.08 2.11925781 -52.24984375 1.52757812 -51.39453125 0.91796875 C-50.564375 0.31597656 -49.73421875 -0.28601563 -48.87890625 -0.90625 C-35.1573121 -8.94800395 -13.40853278 -8.34493779 0 0 Z " transform="matrix(1, 0, 0, 1, 824.3945312500002, 5.08203125)" style="fill: url('#gradient-6'); paint-order: stroke;"/>
  <path d="M0 0 C1.051875 0.00128906 2.10375 0.00257812 3.1875 0.00390625 C6 0.4375 6 0.4375 7.8125 1.77734375 C10.45730102 5.47484517 10.145145 9.36617004 10.1418457 13.70361328 C10.14705734 14.80912285 10.14705734 14.80912285 10.15237427 15.93696594 C10.15972514 17.53786592 10.16507409 19.13877605 10.16866493 20.73968887 C10.17584298 23.2796575 10.19152157 25.81943434 10.21000671 28.35934448 C10.26239857 35.58133236 10.3104 42.80321698 10.32592773 50.02539062 C10.33605143 54.44461937 10.36548999 58.86336759 10.40724754 63.28240585 C10.41950405 64.96074654 10.42468864 66.63915527 10.42244911 68.31753922 C10.32225823 80.91364294 10.32225823 80.91364294 15 92.4375 C15.556875 93.345 16.11375 94.2525 16.6875 95.1875 C22.67550784 101.01366979 29.00975357 102.99411348 37.203125 103.8828125 C40.40372944 104.51756925 42.39784509 105.47678538 45 107.4375 C46.43968231 109.99511744 46.87846867 112.51522393 47 115.4375 C45.91163615 118.70259154 45.15986391 120.68986145 42.23046875 122.578125 C34.92031801 125.39464543 26.64518253 123.57947208 19.65625 120.6875 C7.18157246 114.81706351 -1.9447831 106.53233896 -7 93.4375 C-8.71516182 88.27486168 -9.29285694 83.5804298 -9.2746582 78.17895508 C-9.27976913 77.38456528 -9.28488007 76.59017548 -9.29014587 75.77171326 C-9.30395709 73.16674099 -9.30309242 70.56203559 -9.30078125 67.95703125 C-9.30467106 66.13815717 -9.30900632 64.319284 -9.31376648 62.50041199 C-9.32120911 58.69856817 -9.32095033 54.89681728 -9.31567383 51.0949707 C-9.30986261 46.22241941 -9.32685935 41.35024619 -9.3500185 36.47775745 C-9.36473991 32.72627031 -9.36563005 28.97487478 -9.36250877 25.22336388 C-9.36302216 23.42641128 -9.36826311 21.62945359 -9.37832069 19.83252907 C-9.39064557 17.3240544 -9.38391904 14.8163239 -9.37231445 12.30786133 C-9.38378006 11.19578812 -9.38378006 11.19578812 -9.39547729 10.06124878 C-9.36344195 6.93119109 -9.16886533 4.74589544 -7.6525116 1.97660828 C-5.1976116 -0.30982464 -3.29223315 -0.06051899 0 0 Z " transform="matrix(1, 0, 0, 1, 965, -0.4375)" style="fill: url('#gradient-7'); paint-order: stroke;"/>
  <path d="M0 0 C1.5778125 -0.01546875 1.5778125 -0.01546875 3.1875 -0.03125 C6 0.5 6 0.5 7.8125 2.34375 C9.88699625 6.11059846 10.11912416 9.03253996 10.09765625 13.26171875 C10.09443359 14.37998047 10.09121094 15.49824219 10.08789062 16.65039062 C10.07951172 17.81763672 10.07113281 18.98488281 10.0625 20.1875 C10.05798828 21.36634766 10.05347656 22.54519531 10.04882812 23.75976562 C10.03703273 26.67322789 10.0205727 29.58658863 10 32.5 C10.91289795 32.47381592 11.8257959 32.44763184 12.76635742 32.4206543 C16.16772344 32.33521458 19.56794258 32.27265001 22.9699707 32.2253418 C24.43955525 32.20026356 25.90901587 32.16619144 27.37817383 32.12280273 C29.49591681 32.06184501 31.61200576 32.03372684 33.73046875 32.01171875 C35.00301514 31.98553467 36.27556152 31.95935059 37.58666992 31.93237305 C41.89158348 32.64826776 43.30990818 34.14323733 46 37.5 C47.14639029 40.55704077 47.14657359 41.98699244 46.25 45.125 C44.32665021 48.77936461 42.94023373 50.18658876 39 51.5 C36.78910055 51.58358958 34.57573922 51.60731764 32.36328125 51.59765625 C30.41518555 51.59282227 30.41518555 51.59282227 28.42773438 51.58789062 C27.05598892 51.57953531 25.68424413 51.57107037 24.3125 51.5625 C22.92903805 51.55748335 21.54557437 51.55292073 20.16210938 51.54882812 C16.77469605 51.53702529 13.38736967 51.52056019 10 51.5 C10.06935837 55.91134531 10.1575507 60.32181207 10.26245117 64.73242188 C10.29549866 66.22971472 10.32359202 67.7271261 10.34643555 69.22460938 C10.51168022 79.77214172 10.70355929 88.82713944 18.28515625 96.96484375 C23.85180236 101.94819665 30.00551523 103.08619235 37.265625 104.0078125 C39.93705216 104.48866939 41.73558283 105.02058078 44 106.5 C46.18853596 110.29346232 47.2122931 112.39607588 46.375 116.75 C44.70681804 120.08636393 43.3221388 121.8389306 40 123.5 C26.73948486 124.7983811 15.29763695 120.20067111 5.03125 111.91015625 C-3.24197835 104.19936228 -8.69982267 93.8204385 -9.28344727 82.4618988 C-9.43422368 77.55053555 -9.41779194 72.63967228 -9.3984375 67.7265625 C-9.40046141 65.91197594 -9.40337549 64.09739019 -9.40713501 62.2828064 C-9.41153667 58.49884214 -9.40519273 54.71509161 -9.39111328 50.93115234 C-9.37394886 46.08220409 -9.38392183 41.23375141 -9.40183067 36.38482094 C-9.41266434 32.64619194 -9.40922537 28.90768083 -9.4014473 25.16904831 C-9.39944794 23.38047603 -9.40189528 21.59189302 -9.40888596 19.80333328 C-9.41650174 17.30951707 -9.40489829 14.8165098 -9.38818359 12.32275391 C-9.39425629 11.5860849 -9.40032898 10.84941589 -9.40658569 10.09042358 C-9.36786271 6.9731309 -9.1648455 4.80020035 -7.65151978 2.04428101 C-5.2015596 -0.24659496 -3.29418592 -0.03229594 0 0 Z " transform="matrix(1, 0, 0, 1, 1122, -0.5)" style="fill: url('#gradient-8'); paint-order: stroke;"/>
  <path d="M0 0 C5.5881501 0.1959569 5.5881501 0.1959569 8.8125 2.6875 C10.26542958 6.02923803 10.58843416 7.95609432 10.0625 11.5625 C8.79961341 14.34085049 7.7102829 16.05352772 5.3125 17.9375 C1.87417782 18.89258949 -0.50147688 18.46671661 -3.9375 17.5625 C-6.81192019 15.54429008 -8.61140021 14.127779 -9.34765625 10.59375 C-9.47951087 7.5209641 -9.21182559 5.08528884 -7.77734375 2.3515625 C-5.2165987 -0.13850381 -3.52387021 -0.00435583 0 0 Z " transform="matrix(1, 0, 0, 1, 1186.9375, -0.5625)" style="fill: url('#gradient-9'); paint-order: stroke;"/>
  <path d="M0 0 C9.87812897 8.41223462 16.29998643 19.20949642 17.53515625 32.2890625 C17.72101236 36.98967335 17.48284643 40.24078032 14.31640625 43.97265625 C10.91360378 46.17856556 8.08138233 46.21571615 4.07910156 46.19970703 C2.18759369 46.19948044 2.18759369 46.19948044 0.25787354 46.19924927 C-1.11324217 46.18903681 -2.48435626 46.17860483 -3.85546875 46.16796875 C-5.26222533 46.16423682 -6.66898452 46.1613907 -8.07574463 46.15939331 C-11.77145614 46.15177101 -15.4670095 46.1321347 -19.16265869 46.10998535 C-22.93654237 46.08949661 -26.71045169 46.08038513 -30.484375 46.0703125 C-37.88418654 46.04888737 -45.28386795 46.01476851 -52.68359375 45.97265625 C-51.73494593 47.4252556 -50.78236578 48.87528739 -49.828125 50.32421875 C-49.29807861 51.13197754 -48.76803223 51.93973633 -48.22192383 52.77197266 C-44.29062399 58.39595881 -39.16419277 60.4535951 -32.68359375 61.97265625 C-25.38493808 62.79669802 -17.86194566 61.05050006 -11.859375 56.62890625 C-11.36824219 56.18546875 -10.87710938 55.74203125 -10.37109375 55.28515625 C-7.28298893 52.62794977 -5.73611002 51.97265625 -1.68359375 51.97265625 C2.29112688 53.50139496 3.9349429 54.40046122 6.31640625 57.97265625 C6.99370118 64.97137057 6.99370118 64.97137057 4.6015625 68.5078125 C-3.1058877 76.82131862 -14.12718205 81.24829434 -25.26953125 82.31640625 C-32.57114741 82.50647001 -38.90855975 81.7064419 -45.68359375 78.97265625 C-46.69292969 78.58980469 -46.69292969 78.58980469 -47.72265625 78.19921875 C-58.98130833 73.3100033 -66.61245011 63.49297829 -71.77734375 52.68359375 C-75.61505796 42.34308603 -75.34127388 28.41670452 -70.94140625 18.35546875 C-64.05500641 5.30980446 -55.30502445 -2.41277554 -41.68359375 -8.02734375 C-27.31630631 -12.01310736 -11.75148889 -8.88435195 0 0 Z M-50.68359375 20.97265625 C-51.34359375 22.95265625 -52.00359375 24.93265625 -52.68359375 26.97265625 C-36.84359375 26.97265625 -21.00359375 26.97265625 -4.68359375 26.97265625 C-4.35359375 26.31265625 -4.02359375 25.65265625 -3.68359375 24.97265625 C-8.58720668 17.73398955 -13.80647434 11.85050843 -22.68359375 9.97265625 C-34.47898819 8.95643765 -42.88036977 11.72858801 -50.68359375 20.97265625 Z " transform="matrix(1, 0, 0, 1, 176.68359375000006, 41.02734375)" style="fill: url('#gradient-10'); paint-order: stroke;"/>
  <path d="M0 0 C3.51419477 2.69172365 5.27352839 4.67662148 6 9 C6.10281064 11.34642609 6.14847413 13.69554619 6.16113281 16.04418945 C6.16609772 16.74554016 6.17106262 17.44689087 6.17617798 18.16949463 C6.19075324 20.48410025 6.197594 22.79863732 6.203125 25.11328125 C6.20888048 26.72747295 6.21463816 28.34166464 6.22039795 29.95585632 C6.23089489 33.33930783 6.23674603 36.72273568 6.24023438 40.10620117 C6.24571494 44.43036381 6.26973896 48.75421093 6.29820633 53.07827473 C6.31687956 56.41296792 6.32204081 59.74758584 6.32357025 63.08232689 C6.32658698 64.67585156 6.33458227 66.26937521 6.34775543 67.86284828 C6.36491387 70.09801499 6.36291226 72.33242013 6.35644531 74.56762695 C6.36009094 75.83685501 6.36373657 77.10608307 6.36749268 78.41377258 C5.93689687 82.6158005 4.91401432 85.25280424 3 89 C0.16532289 91.15365612 -2.08201751 91.24012676 -5.5625 90.875 C-8.64281629 90.45012879 -9.68706774 90.29337399 -12 88.125 C-13.99601415 83.88346993 -14.13681782 80.52635468 -14.16113281 75.86987305 C-14.16609772 75.14755493 -14.17106262 74.42523682 -14.17617798 73.68103027 C-14.19078333 71.29125007 -14.19759919 68.90153626 -14.203125 66.51171875 C-14.2088782 64.84886168 -14.21463591 63.18600462 -14.22039795 61.52314758 C-14.23090358 58.03536673 -14.23674898 54.5476089 -14.24023438 51.05981445 C-14.24571541 46.59764544 -14.26973678 42.13578214 -14.29820633 37.67370892 C-14.31686073 34.2378298 -14.32203982 30.80202388 -14.32357025 27.3660984 C-14.32659145 25.72150821 -14.33460198 24.07691914 -14.34775543 22.43237877 C-14.36487345 20.12745515 -14.3629219 17.82327252 -14.35644531 15.51831055 C-14.36009094 14.20831589 -14.36373657 12.89832123 -14.36749268 11.54862976 C-13.96644869 7.67601751 -13.06073699 5.28573233 -11 2 C-7.32317905 -0.45121397 -4.27079037 -0.82418762 0 0 Z " transform="matrix(1, 0, 0, 1, 433.00000000000006, 32)" style="fill: url('#gradient-11'); paint-order: stroke;"/>
  <path d="M0 0 C2.9375 1.8125 2.9375 1.8125 5 4 C5 4.99 5 5.98 5 7 C5.95261719 6.57847656 6.90523438 6.15695313 7.88671875 5.72265625 C9.1535326 5.16901168 10.42046605 4.61564069 11.6875 4.0625 C12.31333984 3.78470703 12.93917969 3.50691406 13.58398438 3.22070312 C20.96676175 0.01248049 27.98281617 -0.83165807 36 0 C39.07365786 1.80803404 40.43019732 2.86039464 42 6 C42.36830993 9.90408522 42.45800201 12.22982746 40.4296875 15.640625 C37.28139704 18.69780738 35.12616273 18.87025995 30.8125 19.4375 C22.66847423 20.73951984 17.35567448 23.5560183 11.625 29.4375 C7.32997571 36.21042292 6.56818133 41.45979153 6.59375 49.3515625 C6.58291382 50.32862152 6.57207764 51.30568054 6.56091309 52.31234741 C6.51524042 56.46860153 6.50355892 60.62478988 6.48876953 64.78125 C6.47307135 67.8257461 6.44007984 70.86972263 6.40625 73.9140625 C6.40927124 74.85061676 6.41229248 75.78717102 6.41540527 76.75210571 C6.35927908 81.62563741 6.25522034 85.09354433 3 89 C-0.7373856 91.4915904 -2.57331583 91.45793285 -7 91 C-9.75329021 89.20437595 -11.52627461 87.94745078 -13 85 C-13.11363273 82.52459719 -13.16780074 80.0766561 -13.17700195 77.6003418 C-13.18357315 76.83754913 -13.19014435 76.07475647 -13.19691467 75.28884888 C-13.21666062 72.75897121 -13.22831315 70.22915295 -13.23828125 67.69921875 C-13.24235678 66.83572123 -13.2464323 65.9722237 -13.25063133 65.08255959 C-13.27149767 60.51215478 -13.2857969 55.94178005 -13.29516602 51.37133789 C-13.30623131 46.65001113 -13.34063076 41.92915558 -13.38033772 37.20799541 C-13.40648064 33.57828392 -13.41485577 29.94868508 -13.41844749 26.31888771 C-13.42331954 24.57855866 -13.43495114 22.83823484 -13.45348549 21.09799767 C-13.47782807 18.66089912 -13.4769213 16.22502464 -13.4699707 13.7878418 C-13.48278076 13.07025192 -13.49559082 12.35266205 -13.50878906 11.61332703 C-13.45886649 6.80569988 -12.40714005 4.37483971 -9 1 C-5.89951072 -0.55024464 -3.42105782 -0.28992015 0 0 Z " transform="matrix(1, 0, 0, 1, 461.00000000000006, 32)" style="fill: url('#gradient-12'); paint-order: stroke;"/>
  <path d="M0 0 C10.35280969 8.16234884 15.42536507 19.78086894 17.06640625 32.6328125 C17.26701246 35.95236761 17.18388902 37.55640866 15.94140625 40.6953125 C13.20930536 43.71004451 11.40667767 45.5348479 7.25616455 46.05607605 C5.59070587 46.0460833 5.59070587 46.0460833 3.89160156 46.03588867 C2.63059631 46.03566208 1.36959106 46.03543549 0.07037354 46.03520203 C-1.30074419 46.01988332 -2.67185827 46.00423535 -4.04296875 45.98828125 C-5.44972277 45.98268336 -6.85648266 45.97841417 -8.26324463 45.97541809 C-11.95904799 45.96398435 -15.65449554 45.9345303 -19.35015869 45.90130615 C-23.12401517 45.87057327 -26.89792935 45.85690591 -30.671875 45.84179688 C-38.07177648 45.80965879 -45.47138519 45.75848074 -52.87109375 45.6953125 C-52.24493164 46.81131836 -51.61876953 47.92732422 -50.97363281 49.07714844 C-50.62141663 49.70490173 -50.26920044 50.33265503 -49.90631104 50.97943115 C-46.80165419 56.12542596 -41.5959787 59.41641464 -35.9609375 61.22265625 C-28.0132269 63.02017584 -21.12136267 61.2133279 -13.87109375 57.6953125 C-12.02783934 56.40620354 -12.02783934 56.40620354 -10.49609375 55.0078125 C-7.70324394 52.54744481 -6.56147697 51.6953125 -2.87109375 51.6953125 C3.33455774 53.69374264 3.33455774 53.69374264 5.56640625 56.5078125 C6.37251181 59.64266746 6.69244226 61.43932665 6.12890625 64.6953125 C0.58355744 73.61066428 -8.87793665 78.86664034 -18.89453125 81.22265625 C-31.2938584 83.19157828 -43.1860174 81.59272911 -53.87109375 74.7578125 C-57.19317332 72.33899909 -60.11565122 69.75691531 -62.87109375 66.6953125 C-63.71671875 65.7671875 -64.56234375 64.8390625 -65.43359375 63.8828125 C-72.28005027 55.40522527 -75.56940716 44.10146117 -75.15234375 33.2578125 C-73.74850149 20.46724967 -68.35416427 9.46851786 -58.87109375 0.6953125 C-40.97470482 -13.20859029 -18.32140883 -12.77526211 0 0 Z M-51.98046875 21.86328125 C-53.08970087 23.80548373 -53.08970087 23.80548373 -52.87109375 26.6953125 C-37.03109375 26.6953125 -21.19109375 26.6953125 -4.87109375 26.6953125 C-5.89709131 21.5653247 -6.99294823 19.00168015 -10.87109375 15.6953125 C-25.02098419 6.28349143 -41.80072064 7.03244134 -51.98046875 21.86328125 Z " transform="matrix(1, 0, 0, 1, 577.87109375, 41.3046875)" style="fill: url('#gradient-13'); paint-order: stroke;"/>
  <path d="M0 0 C0.74838135 0.00563965 1.4967627 0.0112793 2.26782227 0.01708984 C14.615562 0.28705883 24.3903276 5.07227527 33.4375 13.4375 C42.53683836 22.97167399 46.1169068 34.82121825 46.05102539 47.75219727 C45.75324562 60.02204746 40.95886218 69.6797768 32.5859375 78.53515625 C22.35772251 88.20316865 10.99243659 91.89663045 -2.9140625 91.62109375 C-14.82396628 90.53961973 -25.87042956 85.31307085 -34.125 76.625 C-43.37042831 65.17933755 -46.52973579 52.74984091 -45.3125 38.3125 C-42.82764287 25.20376267 -36.03421302 15.16576125 -25.3125 7.3125 C-17.26735538 2.47062889 -9.3922945 -0.07429773 0 0 Z M-21.3125 29.3125 C-25.54740443 36.09607032 -27.09215402 42.3464698 -26.3125 50.3125 C-24.51128614 57.94184534 -20.66839626 63.71506837 -14.3125 68.3125 C-6.8115425 72.12764218 -0.05417727 73.51445503 8.125 71.1875 C16.36379828 68.16988223 21.79732598 63.14293613 25.6875 55.3125 C27.98487963 48.42036111 27.71374925 40.54853443 24.6875 33.9375 C20.85893082 27.30490832 15.27776948 22.0699865 7.8828125 19.75 C-3.40739561 17.49999411 -13.64875698 20.57384237 -21.3125 29.3125 Z " transform="matrix(1, 0, 0, 1, 900.3125, 31.6875)" style="fill: url('#gradient-14'); paint-order: stroke;"/>
  <path d="M0 0 C2.75329021 1.79562405 4.52627461 3.05254922 6 6 C6.09732085 7.36649562 6.13546508 8.73747994 6.1418457 10.10742188 C6.14888016 10.95590698 6.15591461 11.80439209 6.16316223 12.67858887 C6.16732651 13.59934204 6.17149078 14.52009521 6.17578125 15.46875 C6.19899984 17.42188554 6.22311797 19.37501055 6.24804688 21.328125 C6.28300416 24.40436635 6.31241313 27.48022586 6.32592773 30.55664062 C6.34153265 33.52781692 6.3818429 36.49787431 6.42578125 39.46875 C6.42387283 40.37330933 6.42196442 41.27786865 6.41999817 42.20983887 C6.56519912 49.90269605 8.3866954 56.73336925 13.25 62.8125 C20.38386166 68.54567444 20.38386166 68.54567444 29 71 C30.0725 71.0825 31.145 71.165 32.25 71.25 C40.3971573 70.70685618 47.12733577 67.71322538 53 62 C56.58485294 57.21328885 58.11456913 52.5181856 58.1418457 46.60205078 C58.14888016 45.74080597 58.15591461 44.87956116 58.16316223 43.99221802 C58.16940865 42.60774979 58.16940865 42.60774979 58.17578125 41.1953125 C58.19897663 39.230458 58.22309385 37.26561421 58.24804688 35.30078125 C58.2831633 32.21102695 58.31251446 29.12166794 58.32592773 26.03173828 C58.34142619 23.04411346 58.38164192 20.05763371 58.42578125 17.0703125 C58.42387283 16.15138214 58.42196442 15.23245178 58.41999817 14.28567505 C58.52845912 8.57980122 59.24611441 5.37200231 63 1 C66.15796107 -0.57898053 69.60670636 -0.81928171 73 0 C75.86582153 2.05826674 77.7284849 3.70738308 78.47279358 7.25085449 C78.66308492 10.0833365 78.6927347 12.87602503 78.6640625 15.71484375 C78.66884613 16.76217178 78.67362976 17.80949982 78.67855835 18.88856506 C78.68195829 21.10679626 78.67274943 23.32507749 78.65185547 25.54321289 C78.62533451 28.895221 78.65147562 32.24380575 78.68359375 35.59570312 C78.7121338 52.93212825 76.63545092 66.07650562 64.125 78.92578125 C54.14882753 88.31866945 42.71028229 91.52334214 29.26171875 91.2421875 C17.15619603 90.34333432 6.4556512 85.00504495 -1.9375 76.25 C-10.53990425 65.99568478 -13.30525945 54.41594257 -13.3359375 41.33203125 C-13.3459227 39.83527107 -13.3459227 39.83527107 -13.35610962 38.30827332 C-13.36618353 36.21147493 -13.37092828 34.11464482 -13.37060547 32.01782227 C-13.3750014 28.81148043 -13.41143931 25.60649156 -13.44921875 22.40039062 C-13.45508347 20.35677552 -13.45905517 18.31315391 -13.4609375 16.26953125 C-13.47530853 15.31424026 -13.48967957 14.35894928 -13.50448608 13.37471008 C-13.4747995 9.05793593 -13.40838708 6.66055223 -11.09619141 2.9206543 C-7.46117911 -0.40995853 -4.88532939 -0.41401097 0 0 Z " transform="matrix(1, 0, 0, 1, 1025.0000000000002, 32)" style="fill: url('#gradient-15'); paint-order: stroke;"/>
  <path d="M0 0 C3.44312714 2.1244827 4.71617547 3.14852641 6 7 C6.11102371 9.44693033 6.16759745 11.86617357 6.17700195 14.3137207 C6.18357315 15.05554596 6.19014435 15.79737122 6.19691467 16.56167603 C6.2166234 19.01637882 6.2283046 21.47102052 6.23828125 23.92578125 C6.24235678 24.76504843 6.2464323 25.60431561 6.25063133 26.46901512 C6.27148137 30.91090015 6.28578789 35.35275437 6.29516602 39.79467773 C6.30623047 44.37800026 6.34063357 48.9608373 6.38033772 53.54398823 C6.40650475 57.07251375 6.41485789 60.60092357 6.41844749 64.12953758 C6.42331296 65.81880155 6.43492586 67.50806037 6.45348549 69.19722939 C6.47788051 71.56457448 6.47691187 73.93066292 6.4699707 76.2980957 C6.48278076 76.99181778 6.49559082 77.68553986 6.50878906 78.40028381 C6.45595891 83.35934548 5.10177116 86.17962629 2 90 C-1.10048928 91.55024464 -3.57894218 91.28992015 -7 91 C-9.75329021 89.20437595 -11.52627461 87.94745078 -13 85 C-13.1032574 82.51901787 -13.14681428 80.06591432 -13.14526367 77.58447266 C-13.14862228 76.8200737 -13.1519809 76.05567474 -13.15544128 75.26811218 C-13.16496397 72.73341256 -13.16689512 70.19877891 -13.16796875 67.6640625 C-13.17118065 65.90530367 -13.17454467 64.14654512 -13.17805481 62.38778687 C-13.18404954 58.69732036 -13.18589438 55.00687728 -13.18530273 51.31640625 C-13.18520115 46.58616357 -13.19884833 41.85607111 -13.21607494 37.12586403 C-13.22719128 33.49190582 -13.22922205 29.85798394 -13.22869301 26.22401047 C-13.22987387 24.48009092 -13.23430159 22.73617045 -13.24202538 20.99226761 C-13.25181694 18.55284348 -13.24895047 16.11374573 -13.24291992 13.67431641 C-13.24853943 12.95313126 -13.25415894 12.23194611 -13.25994873 11.48890686 C-13.23706279 7.84784365 -13.1498588 5.01734077 -11 2 C-7.31106884 -0.45928744 -4.28358579 -0.69305579 0 0 Z " transform="matrix(1, 0, 0, 1, 1191.0000000000002, 32)" style="fill: url('#gradient-16'); paint-order: stroke;"/>
  <path d="M0 0 C10.15984824 9.70829943 15.46348401 21.74719102 15.9140625 35.87109375 C15.17940951 49.32224024 9.40817773 60.9346664 -0.359375 70.12890625 C-9.83647261 78.20873947 -21.31514135 81.48357426 -33.69921875 81.0703125 C-45.88786727 79.73270046 -55.98451576 74.80192693 -64.1875 65.6875 C-65.0125 64.800625 -65.8375 63.91375 -66.6875 63 C-74.38197596 53.50933722 -77.31373004 41.7363738 -76.1875 29.6875 C-74.17600655 16.94240706 -67.94052387 5.71091012 -57.68359375 -2.2578125 C-39.28113555 -14.77043699 -17.58687446 -12.759105 0 0 Z M-51.1875 17.6875 C-56.36488898 24.6327779 -57.96501505 31.72655127 -56.84765625 40.29296875 C-55.05035143 47.869842 -50.54079517 53.83778418 -44.02734375 58.1015625 C-36.86649892 61.82252486 -30.23671639 62.60703068 -22.3125 60.6875 C-15.07393353 58.33717278 -9.34587764 53.35943332 -5.6875 46.6875 C-2.54065722 39.26787986 -2.66364911 32.25905266 -5.1875 24.6875 C-8.66706674 17.15854201 -13.81840441 13.23887137 -21.1875 9.6875 C-32.25786126 5.99737958 -43.21948911 9.53839795 -51.1875 17.6875 Z " transform="matrix(1, 0, 0, 1, 1282.1875000000002, 42.3125)" style="fill: url('#gradient-17'); paint-order: stroke;"/>
  <path d="M0 0 C0.63550781 0.52722656 1.27101563 1.05445313 1.92578125 1.59765625 C3.90529547 3.28051027 3.90529547 3.28051027 6.26953125 2.63671875 C7.10871094 2.32347656 7.94789062 2.01023438 8.8125 1.6875 C18.25962281 -1.21736396 28.6585215 -1.63954208 37.7265625 2.68359375 C47.78482413 8.50770745 53.71139935 15.77007367 57 27 C57.26069641 29.93447876 57.26069641 29.93447876 57.2746582 33.03369141 C57.28419022 34.20155182 57.29372223 35.36941223 57.30354309 36.57266235 C57.30263168 37.8196994 57.30172028 39.06673645 57.30078125 40.3515625 C57.30506638 41.64315277 57.3093515 42.93474304 57.31376648 44.26547241 C57.32120235 46.99050012 57.32095536 49.71539817 57.31567383 52.44042969 C57.30986339 55.92862942 57.32686006 59.41630088 57.3500185 62.90441322 C57.36829816 66.24098533 57.36457097 69.57744057 57.36328125 72.9140625 C57.372491 74.16514801 57.38170074 75.41623352 57.39118958 76.70523071 C57.38496078 77.8667868 57.37873199 79.0283429 57.37231445 80.22509766 C57.37294388 81.24624664 57.3735733 82.26739563 57.3742218 83.31948853 C56.94383207 86.40232498 56.13564732 87.7684716 54 90 C51.87890625 90.6796875 51.87890625 90.6796875 49.5625 90.875 C48.41974609 90.99488281 48.41974609 90.99488281 47.25390625 91.1171875 C44.63214023 90.98087384 43.19488104 90.42597367 41 89 C38.84072391 85.76108587 38.74708877 84.86011101 38.72875977 81.12060547 C38.71857315 80.12882294 38.70838654 79.13704041 38.69789124 78.11520386 C38.69575119 77.04335846 38.69361115 75.97151306 38.69140625 74.8671875 C38.66623272 72.59374759 38.64083491 70.32031015 38.61523438 68.046875 C38.58656836 64.46582762 38.56255171 60.88482353 38.54370117 57.30371094 C38.52193768 53.84546778 38.4824741 50.38774764 38.44140625 46.9296875 C38.44129044 45.86998749 38.44117462 44.81028748 38.4410553 43.71847534 C38.35570932 37.251705 37.40323901 31.99620326 35 26 C34.505 24.515 34.505 24.515 34 23 C31.57616923 21.83046584 31.57616923 21.83046584 29 21 C28.34 20.67 27.68 20.34 27 20 C21.31668392 19.40893513 16.85222997 19.72756584 12 23 C8.04933718 27.27098683 6.88282458 30.38601962 6.84228516 36.12646484 C6.82689194 37.69356705 6.82689194 37.69356705 6.81118774 39.29232788 C6.80388641 40.42046906 6.79658508 41.54861023 6.7890625 42.7109375 C6.76099721 45.09375691 6.73233277 47.47656932 6.703125 49.859375 C6.66183424 53.62076649 6.62495084 57.38202691 6.59863281 61.14355469 C6.57104819 64.77045741 6.52517878 68.39676392 6.4765625 72.0234375 C6.47330963 73.14753021 6.47005676 74.27162292 6.46670532 75.42977905 C6.45013885 76.48081818 6.43357239 77.5318573 6.41650391 78.61474609 C6.40841705 79.53613373 6.4003302 80.45752136 6.39199829 81.40682983 C5.91521247 84.56089148 4.86647281 86.42921594 3 89 C-0.7373856 91.4915904 -2.57331583 91.45793285 -7 91 C-9.75329021 89.20437595 -11.52627461 87.94745078 -13 85 C-13.11363273 82.52459719 -13.16780074 80.0766561 -13.17700195 77.6003418 C-13.18357315 76.83754913 -13.19014435 76.07475647 -13.19691467 75.28884888 C-13.21666062 72.75897121 -13.22831315 70.22915295 -13.23828125 67.69921875 C-13.24235678 66.83572123 -13.2464323 65.9722237 -13.25063133 65.08255959 C-13.27149767 60.51215478 -13.2857969 55.94178005 -13.29516602 51.37133789 C-13.30623131 46.65001113 -13.34063076 41.92915558 -13.38033772 37.20799541 C-13.40648064 33.57828392 -13.41485577 29.94868508 -13.41844749 26.31888771 C-13.42331954 24.57855866 -13.43495114 22.83823484 -13.45348549 21.09799767 C-13.47782807 18.66089912 -13.4769213 16.22502464 -13.4699707 13.7878418 C-13.48278076 13.07025192 -13.49559082 12.35266205 -13.50878906 11.61332703 C-13.45886649 6.80569988 -12.40714005 4.37483971 -9 1 C-5.94306678 -0.52846661 -3.37015453 -0.23242445 0 0 Z " transform="matrix(1, 0, 0, 1, 1320, 32)" style="fill: url('#gradient-18'); paint-order: stroke;"/>
  <path d="M0 0 C1.8407135 1.30445862 1.8407135 1.30445862 3.73071289 3.04125977 C4.42931427 3.67903351 5.12791565 4.31680725 5.84768677 4.97390747 C6.55795013 5.64251801 7.2682135 6.31112854 8 7 C8.99638992 7.93487747 8.99638992 7.93487747 10.01290894 8.88864136 C14.42067245 13.07532077 18.74846282 17.34460191 23.07495117 21.61499023 C24.65547834 23.16873157 26.24312473 24.71526262 27.83764648 26.25463867 C30.15753408 28.49549059 32.45367318 30.75844115 34.74609375 33.02734375 C35.45954453 33.70780258 36.1729953 34.38826141 36.9080658 35.08934021 C41.46613064 39.66619238 42.95610391 42.4947718 43 49 C41.38239354 63.04954822 33.89644537 73.84257173 23.1015625 82.52734375 C13.00374014 89.53616982 0.99438794 91.10614911 -11 90 C-14.51549443 89.33965713 -17.69440756 88.35523398 -21 87 C-21.67160156 86.74476562 -22.34320312 86.48953125 -23.03515625 86.2265625 C-33.48756961 81.69649071 -42.5790112 71.94022861 -47.05859375 61.54296875 C-47.8098274 59.37553387 -48.44176936 57.22399087 -49 55 C-49.226875 54.195625 -49.45375 53.39125 -49.6875 52.5625 C-51.01694915 41.66101695 -51.01694915 41.66101695 -48.125 36.9375 C-45.37440779 34.4296071 -44.44867818 34.04232813 -40.6875 33.6875 C-36.24898936 34.06364497 -35.05504853 34.81016991 -32 38 C-31.14919961 40.82638774 -30.54939982 43.36785212 -30.0625 46.25 C-28.30640508 54.90353898 -25.62433634 60.29466351 -18.625 65.875 C-13.01140717 69.54732835 -6.62633683 70.67386476 0 70 C7.5778764 67.95042817 14.14652267 65.45403187 18.5390625 58.59765625 C20.56850855 54.92337124 20.56850855 54.92337124 22 51 C20.80531524 47.95112364 19.16517318 45.92323429 16.85131836 43.64013672 C16.21403305 43.00623016 15.57674774 42.37232361 14.92015076 41.71920776 C14.23364944 41.04616608 13.54714813 40.37312439 12.83984375 39.6796875 C12.13477188 38.9798172 11.42970001 38.2799469 10.70326233 37.55886841 C8.4527047 35.32611018 6.19557104 33.10015735 3.9375 30.875 C1.67674302 28.64183957 -0.58255022 26.40724714 -2.838974 24.16970825 C-4.24295051 22.77801112 -5.64959108 21.38899556 -7.05909729 20.00289917 C-7.69323044 19.37529694 -8.32736359 18.7476947 -8.98071289 18.10107422 C-9.54093643 17.5491037 -10.10115997 16.99713318 -10.67835999 16.42843628 C-12.81571672 14.11836859 -13.00914788 12.90303248 -13.3125 9.6875 C-12.95124058 5.42463889 -11.98007946 3.98007946 -9 1 C-5.73952371 -0.63023814 -3.62198965 -0.4673535 0 0 Z " transform="matrix(1, 0, 0, 1, 803.0000000000002, 33)" style="fill: url('#gradient-19'); paint-order: stroke;"/>
</svg>