<svg xmlns="http://www.w3.org/2000/svg" xmlns:xlink="http://www.w3.org/1999/xlink" version="1.1" id="layer" x="0px" y="0px" style="enable-background:new 0 0 652 652;" xml:space="preserve" viewBox="20.9 261 600 120">
<style type="text/css">
	.st0{fill:url(#Fill-40_1_);}
</style>
<path d="M149.2,306h-12.4v-9.9H172v9.9h-12.4v41.8h-10.4V306z M190.5,325.7c0-5.2-1.5-8-5.4-8c-3.9,0-5.7,3-6.1,8H190.5z   M168.7,328.6c0-11.8,6-19.2,16.2-19.2c10.5,0,16.2,8.4,15,23.1h-20.6c0.8,5.3,4.1,7.4,9.3,7.4c3.1,0,6-0.4,9-1.6v7.6  c-3,1.4-6.4,1.9-10.4,1.9C175.3,347.8,168.7,340.5,168.7,328.6z M204.9,346.6h10.3v-55.5h-10.3V346.6z M241.6,325.5  c0-5.2-1.5-8-5.4-8c-3.9,0-5.7,3-6.1,8H241.6z M219.8,328.4c0-11.8,6-19.2,16.2-19.2c10.5,0,16.2,8.4,15,23.1h-20.6  c0.8,5.3,4.1,7.4,9.3,7.4c3.1,0,6-0.4,9-1.6v7.6c-3,1.4-6.4,1.9-10.4,1.9C226.4,347.6,219.8,340.3,219.8,328.4z M265.9,335  c1.2,2.3,3.1,3.7,5.6,3.7c4.4,0,6.1-3.7,6.1-10.3c0-6.6-1.7-10.3-6.1-10.3c-2.5,0-4.4,1.4-5.6,3.7V335z M274.5,347.6  c-4.1,0-6.8-1.7-8.6-3.7v19.4h-10.3v-53.2h9.2v3.7c1.7-2.4,4.7-4.7,9.4-4.7c9.9,0,13.5,9,13.5,19.2  C287.8,339.6,283.6,347.6,274.5,347.6z M312.7,325.5c0-5.2-1.5-8-5.4-8s-5.7,3-6.1,8H312.7z M290.9,328.4c0-11.8,6-19.2,16.2-19.2  c10.5,0,16.2,8.4,15,23.1h-20.6c0.8,5.3,4.1,7.4,9.3,7.4c3.1,0,6-0.4,9-1.6v7.6c-3,1.4-6.4,1.9-10.4,1.9  C297.5,347.6,290.9,340.3,290.9,328.4z M326.3,310.1h9.2v5.5c2.2-4.6,6.4-6.8,11.9-6.3v10.3c-4.9-0.6-8.8,1.1-10.8,6.2v20.7h-10.3  V310.1z M355.9,318.9H351v-8.8h4.8v-4.8c0-9.5,6.1-12.9,12.6-12.9c2.7,0,4.6,0.4,6.7,1.2v8.4c-1.2-0.5-2.7-0.8-4.1-0.8  c-2.9,0-4.9,1.4-4.9,4.5v4.4h7.4v8.8h-7.4v27.7h-10.3V318.9z M385.2,328.4c0,6.7,1.8,10.3,6.2,10.3c4.4,0,6.1-3.6,6.1-10.3  c0-6.7-1.8-10.4-6.1-10.4C387,318,385.2,321.7,385.2,328.4 M407.9,328.4c0,12-5.9,19.2-16.5,19.2c-10.7,0-16.6-7.2-16.6-19.2  c0-12,5.9-19.2,16.6-19.2C402,309.1,407.9,316.3,407.9,328.4 M411.6,310.1h9.2v5.5c2.2-4.6,6.4-6.8,11.9-6.3v10.3  c-4.9-0.6-8.8,1.1-10.8,6.2v20.7h-10.3V310.1z M484.6,320.8v25.8h-10.1V323c0-3-1.4-4.4-3.8-4.4c-2.1,0-3.8,1.2-5.1,3.3v24.8h-10  V323c0-3-1.5-4.4-3.8-4.4c-2.1,0-3.8,1.2-5.1,3.4v24.6h-10.1v-36.5h9.2v3.4c2.1-2.7,5.3-4.4,9.3-4.4c4,0,7,1.7,8.7,4.4  c2.7-3.1,6-4.4,10-4.4C481,309.1,484.6,314.3,484.6,320.8 M508.9,338.5v-7c-1.3-0.3-2.5-0.5-3.7-0.5c-3.8,0-6.3,1.2-6.3,4.9  c0,3.3,2,4.7,4.4,4.7C505.7,340.7,507.3,340,508.9,338.5 M522.5,339.3v7.1c-1.5,0.5-3.1,0.7-4.9,0.7c-2.8,0-5.4-0.8-7-2.8  c-2.8,2.2-6.1,3.3-9.9,3.3c-6.3,0-11.7-3.6-11.7-11.3c0-7.8,5.7-11.7,13.9-11.7c2,0,3.7,0.2,5.9,0.7v-2c0-3-1.4-5.5-6.4-5.5  c-4.1,0-8,1-11.1,2.3v-8.7c3.4-1.2,7.9-2.1,12.1-2.1c10.2,0,15.5,4.5,15.5,14.9v13c0,1.8,0.9,2.4,2.4,2.4  C521.7,339.5,522.2,339.4,522.5,339.3 M526.3,310.1h9.2v3.4c2.1-2.4,5.1-4.4,10-4.4c5.8,0,11.1,4,11.1,11.6v25.8h-10.3V323  c0-3.1-1.5-4.4-4.2-4.4c-2.7,0-4.5,1.7-5.5,3.6v24.4h-10.3V310.1z M560.9,328.7c0-12.5,7.4-19.5,17.5-19.5c3.1,0,5.5,0.5,8,1.7v8.6  c-1.9-1-3.9-1.5-6.4-1.5c-5.4,0-8.7,3.9-8.7,10.5s3,10.3,8.3,10.3c3.1,0,5.4-0.7,7.3-1.5v8.8c-2.3,1.1-5.1,1.6-8.9,1.6  C568,347.6,560.9,340.8,560.9,328.7 M611.4,325.5c0-5.2-1.5-8-5.4-8c-3.9,0-5.7,3-6.1,8H611.4z M589.5,328.4  c0-11.8,6-19.2,16.2-19.2c10.5,0,16.2,8.4,15,23.1h-20.6c0.8,5.3,4.1,7.4,9.3,7.4c3.1,0,6-0.4,9-1.6v7.6c-3,1.4-6.4,1.9-10.4,1.9  C596.1,347.6,589.5,340.3,589.5,328.4z M294.5,371.3h9.4c-0.1-3.9-1.4-6-4.6-6C296,365.3,294.7,367.4,294.5,371.3z M305.9,379.6  c0.1,0.5-0.1,0.7-0.5,0.8c-1.2,0.3-3.1,0.5-5.1,0.5c-5.4,0-8-2.5-8-8.4V372c0-5.2,2-8.4,7-8.4c6.3,0,6.5,5.1,6.7,8l0,0.4  c0,0.5-0.2,0.7-0.7,0.7h-10.7c0,4.7,1.8,6.6,6,6.6c2,0,3.6-0.3,4.6-0.5c0.5-0.1,0.7,0.3,0.7,0.5L305.9,379.6z M311,376.1  c0,2.5,1.8,3.4,4.9,3.4c1.9,0,3.4-0.4,4-0.6v-5.5c-0.6-0.3-2.3-0.8-4.2-0.8c-3.1,0-4.6,1.2-4.6,3.3V376.1z M319.8,371.9v-3.4  c0-1.9-1-3.2-4.1-3.2c-1.7,0-3.8,0.3-4.9,0.5c-0.5,0.1-0.6,0-0.7-0.5l-0.1-0.3c-0.1-0.6,0.1-0.7,0.6-0.8c1.4-0.3,3.9-0.6,5.6-0.6  c4.3,0,5.7,1.7,5.7,4.9v10.8c0,0.5-0.1,0.7-0.7,0.8c-1,0.4-3,0.9-5.5,0.9c-4,0-7-1.1-7-4.8v-0.4c0-3,2.3-4.7,6.3-4.7  C316.8,371.1,318.3,371.3,319.8,371.9z M337.2,365c-0.1,0.4-0.2,0.6-0.5,0.5c-1.4-0.2-1.8-0.2-3.2-0.2c-3.9,0-5.5,2.4-5.5,6.8v0.5  c0,4.5,1.7,6.7,5.6,6.7c1.3,0,2.3-0.1,3.1-0.3c0.4-0.1,0.5,0.3,0.5,0.6l0.1,0.4c0.1,0.4-0.1,0.6-0.5,0.6c-1.4,0.2-2.6,0.3-3.6,0.3  c-5.3,0-7.5-2.9-7.5-8.5V372c0-5.4,2.3-8.4,7.3-8.4c1.6,0,2.4,0.1,3.7,0.3c0.4,0.1,0.6,0.2,0.5,0.7L337.2,365z M354,380  c0,0.5-0.2,0.7-0.7,0.7h-0.7c-0.5,0-0.7-0.2-0.7-0.7v-10.3c0-2.6-1.2-4.3-4.1-4.3c-1.7,0-4,0.6-4.9,1V380c0,0.5-0.2,0.7-0.7,0.7  h-0.7c-0.5,0-0.7-0.2-0.7-0.7v-22.2c0-0.5,0.2-0.7,0.7-0.7h0.7c0.5,0,0.7,0.2,0.7,0.7v6.8c1.7-0.6,3.7-1,5.4-1c4,0,5.6,2.3,5.6,5.9  V380z M370.7,379.5c0.1,0.4,0.1,0.7-0.4,0.9c-0.6,0.2-1.1,0.3-1.7,0.3c-1.9,0-2.9-0.8-2.9-3.6v-12.5c0-0.5,0.2-0.7,0.7-0.7h0.7  c0.5,0,0.7,0.2,0.7,0.7v12.5c0,1.3,0.4,1.9,1.3,1.9c0.4,0,0.8-0.1,1.1-0.2c0.3-0.1,0.4,0.1,0.4,0.5L370.7,379.5z M366.3,361.1  c-0.5,0-0.7-0.2-0.7-0.7v-1.7c0-0.5,0.2-0.7,0.7-0.7h0.9c0.4,0,0.7,0.2,0.7,0.7v1.7c0,0.5-0.2,0.7-0.7,0.7H366.3z M386.4,380  c0,0.5-0.2,0.7-0.7,0.7H385c-0.5,0-0.7-0.2-0.7-0.7v-10.3c0-2.6-1.2-4.3-4.1-4.3c-1.7,0-4,0.6-4.9,1V380c0,0.5-0.2,0.7-0.7,0.7h-0.7  c-0.5,0-0.7-0.2-0.7-0.7v-14.1c0-0.5,0.2-0.8,0.7-1c1.3-0.6,4-1.3,6.5-1.3c4.3,0,6,2.3,6,5.9V380z M391,365.6h-1.1  c-0.5,0-0.7-0.2-0.7-0.7v-0.3c0-0.5,0.2-0.7,0.7-0.7h1.1V361c0-0.5,0.2-0.7,0.7-0.7h0.7c0.5,0,0.7,0.2,0.7,0.7v2.9h3  c0.5,0,0.7,0.2,0.7,0.7v0.3c0,0.5-0.2,0.7-0.7,0.7h-3v10.8c0,1.6,0.5,2.6,2.2,2.6c0.4,0,1-0.1,1.6-0.2c0.3,0,0.5,0.2,0.5,0.7v0.3  c0,0.5,0,0.6-0.5,0.7c-0.6,0.2-1.2,0.3-1.8,0.3c-2.9,0-4.1-1.5-4.1-4.3V365.6z M401.5,371.3h9.4c-0.1-3.9-1.4-6-4.6-6  C403,365.3,401.6,367.4,401.5,371.3z M412.9,379.6c0.1,0.5-0.1,0.7-0.5,0.8c-1.2,0.3-3.1,0.5-5.1,0.5c-5.4,0-8-2.5-8-8.4V372  c0-5.2,2-8.4,7-8.4c6.3,0,6.5,5.1,6.7,8l0,0.4c0,0.5-0.2,0.7-0.7,0.7h-10.7c0,4.7,1.8,6.6,6,6.6c2,0,3.6-0.3,4.6-0.5  c0.5-0.1,0.7,0.3,0.7,0.5L412.9,379.6z M425.6,364.9c-0.1,0.6-0.2,0.7-0.6,0.6c-0.7-0.2-1.6-0.2-2.4-0.2c-1.1,0-2.6,0.2-3.6,0.7v14  c0,0.5-0.2,0.7-0.7,0.7h-0.7c-0.5,0-0.7-0.2-0.7-0.7v-14.7c0-0.4,0.2-0.7,0.7-0.8c1.5-0.7,3.2-0.9,4.9-0.9c1.2,0,2.1,0.1,2.8,0.3  c0.5,0.1,0.5,0.3,0.4,0.9L425.6,364.9z M429.3,376.1c0,2.5,1.8,3.4,4.9,3.4c1.9,0,3.4-0.4,4-0.6v-5.5c-0.6-0.3-2.3-0.8-4.2-0.8  c-3.1,0-4.6,1.2-4.6,3.3V376.1z M438.2,371.9v-3.4c0-1.9-1-3.2-4.1-3.2c-1.7,0-3.8,0.3-4.9,0.5c-0.5,0.1-0.6,0-0.7-0.5l-0.1-0.3  c-0.1-0.6,0.1-0.7,0.6-0.8c1.4-0.3,3.9-0.6,5.6-0.6c4.3,0,5.7,1.7,5.7,4.9v10.8c0,0.5-0.1,0.7-0.7,0.8c-1,0.4-3,0.9-5.5,0.9  c-4,0-7-1.1-7-4.8v-0.4c0-3,2.3-4.7,6.3-4.7C435.1,371.1,436.6,371.3,438.2,371.9z M455.6,365c-0.1,0.4-0.2,0.6-0.5,0.5  c-1.4-0.2-1.8-0.2-3.2-0.2c-3.9,0-5.5,2.4-5.5,6.8v0.5c0,4.5,1.7,6.7,5.6,6.7c1.3,0,2.3-0.1,3.1-0.3c0.4-0.1,0.5,0.3,0.5,0.6  l0.1,0.4c0.1,0.4-0.1,0.6-0.5,0.6c-1.4,0.2-2.6,0.3-3.6,0.3c-5.3,0-7.5-2.9-7.5-8.5V372c0-5.4,2.3-8.4,7.3-8.4  c1.6,0,2.4,0.1,3.7,0.3c0.4,0.1,0.6,0.2,0.5,0.7L455.6,365z M459.5,365.6h-1.1c-0.5,0-0.7-0.2-0.7-0.7v-0.3c0-0.5,0.2-0.7,0.7-0.7  h1.1V361c0-0.5,0.2-0.7,0.7-0.7h0.7c0.5,0,0.7,0.2,0.7,0.7v2.9h3c0.5,0,0.7,0.2,0.7,0.7v0.3c0,0.5-0.2,0.7-0.7,0.7h-3v10.8  c0,1.6,0.5,2.6,2.2,2.6c0.4,0,1-0.1,1.6-0.2c0.3,0,0.5,0.2,0.5,0.7v0.3c0,0.5,0,0.6-0.5,0.7c-0.6,0.2-1.2,0.3-1.8,0.3  c-2.9,0-4.1-1.5-4.1-4.3V365.6z M473.6,379.5c0.1,0.4,0.1,0.7-0.4,0.9c-0.6,0.2-1.1,0.3-1.7,0.3c-1.9,0-2.9-0.8-2.9-3.6v-12.5  c0-0.5,0.2-0.7,0.7-0.7h0.7c0.5,0,0.7,0.2,0.7,0.7v12.5c0,1.3,0.4,1.9,1.3,1.9c0.4,0,0.8-0.1,1.1-0.2c0.3-0.1,0.4,0.1,0.4,0.5  L473.6,379.5z M469.2,361.1c-0.5,0-0.7-0.2-0.7-0.7v-1.7c0-0.5,0.2-0.7,0.7-0.7h0.9c0.4,0,0.7,0.2,0.7,0.7v1.7  c0,0.5-0.2,0.7-0.7,0.7H469.2z M487.8,372c0-4.3-1.7-6.7-5.1-6.7c-3.5,0-5.1,2.5-5.1,6.7v0.5c0,4.2,1.7,6.8,5.1,6.8  c3.4,0,5.1-2.6,5.1-6.8V372z M475.2,372c0-5.3,2.5-8.4,7.4-8.4c4.9,0,7.4,3.1,7.4,8.4v0.5c0,5.3-2.5,8.4-7.4,8.4  c-4.9,0-7.4-3.2-7.4-8.4V372z M507,380c0,0.5-0.2,0.7-0.7,0.7h-0.7c-0.5,0-0.7-0.2-0.7-0.7v-10.3c0-2.6-1.2-4.3-4.1-4.3  c-1.7,0-4,0.6-4.9,1V380c0,0.5-0.2,0.7-0.7,0.7h-0.7c-0.5,0-0.7-0.2-0.7-0.7v-14.1c0-0.5,0.2-0.8,0.7-1c1.3-0.6,4-1.3,6.5-1.3  c4.3,0,6,2.3,6,5.9V380z M541.7,380c0,0.5-0.2,0.7-0.7,0.7h-0.7c-0.5,0-0.7-0.2-0.7-0.7v-10.1c0-2.7-1.1-4.6-4-4.6  c-1.5,0-3.5,0.9-4.3,1.5V380c0,0.5-0.2,0.7-0.7,0.7h-0.8c-0.5,0-0.7-0.2-0.7-0.7v-11.9c0-1.6-1.1-2.7-4-2.7c-1.5,0-3.5,0.6-4.3,1  V380c0,0.5-0.2,0.7-0.7,0.7h-0.7c-0.5,0-0.7-0.2-0.7-0.7v-14.1c0-0.5,0.2-0.8,0.7-0.9c1.2-0.6,3.6-1.4,5.9-1.4c2.4,0,4,0.5,4.9,1.5  c1.6-0.8,3.7-1.5,5.6-1.5c4.2,0,6,2.4,6,6.2V380z M547.4,376.1c0,2.5,1.8,3.4,4.9,3.4c1.9,0,3.4-0.4,4-0.6v-5.5  c-0.6-0.3-2.3-0.8-4.2-0.8c-3.1,0-4.6,1.2-4.6,3.3V376.1z M556.2,371.9v-3.4c0-1.9-1-3.2-4.1-3.2c-1.7,0-3.8,0.3-4.9,0.5  c-0.5,0.1-0.6,0-0.7-0.5l-0.1-0.3c-0.1-0.6,0.1-0.7,0.6-0.8c1.4-0.3,3.9-0.6,5.6-0.6c4.3,0,5.7,1.7,5.7,4.9v10.8  c0,0.5-0.1,0.7-0.7,0.8c-1,0.4-3,0.9-5.5,0.9c-4,0-7-1.1-7-4.8v-0.4c0-3,2.3-4.7,6.3-4.7C553.2,371.1,554.7,371.3,556.2,371.9z   M563.1,365.6h-1.1c-0.5,0-0.7-0.2-0.7-0.7v-0.3c0-0.5,0.2-0.7,0.7-0.7h1.1V361c0-0.5,0.2-0.7,0.7-0.7h0.7c0.5,0,0.7,0.2,0.7,0.7  v2.9h3c0.5,0,0.7,0.2,0.7,0.7v0.3c0,0.5-0.2,0.7-0.7,0.7h-3v10.8c0,1.6,0.5,2.6,2.2,2.6c0.4,0,1-0.1,1.6-0.2c0.3,0,0.5,0.2,0.5,0.7  v0.3c0,0.5,0,0.6-0.5,0.7c-0.6,0.2-1.2,0.3-1.8,0.3c-2.9,0-4.1-1.5-4.1-4.3V365.6z M572.4,365.6h-1.1c-0.5,0-0.7-0.2-0.7-0.7v-0.3  c0-0.5,0.2-0.7,0.7-0.7h1.1V361c0-0.5,0.2-0.7,0.7-0.7h0.7c0.5,0,0.7,0.2,0.7,0.7v2.9h3c0.5,0,0.7,0.2,0.7,0.7v0.3  c0,0.5-0.2,0.7-0.7,0.7h-3v10.8c0,1.6,0.5,2.6,2.2,2.6c0.4,0,1-0.1,1.6-0.2c0.3,0,0.5,0.2,0.5,0.7v0.3c0,0.5,0,0.6-0.5,0.7  c-0.6,0.2-1.2,0.3-1.8,0.3c-2.9,0-4.1-1.5-4.1-4.3V365.6z M582.9,371.3h9.4c-0.1-3.9-1.4-6-4.6-6  C584.4,365.3,583.1,367.4,582.9,371.3z M594.3,379.6c0.1,0.5-0.1,0.7-0.5,0.8c-1.2,0.3-3.1,0.5-5.1,0.5c-5.4,0-8-2.5-8-8.4V372  c0-5.2,2-8.4,7-8.4c6.3,0,6.5,5.1,6.7,8l0,0.4c0,0.5-0.2,0.7-0.7,0.7h-10.7c0,4.7,1.8,6.6,6,6.6c2,0,3.6-0.3,4.6-0.5  c0.5-0.1,0.7,0.3,0.7,0.5L594.3,379.6z M607,364.9c-0.1,0.6-0.2,0.7-0.6,0.6c-0.7-0.2-1.6-0.2-2.4-0.2c-1.1,0-2.6,0.2-3.6,0.7v14  c0,0.5-0.2,0.7-0.7,0.7h-0.7c-0.5,0-0.7-0.2-0.7-0.7v-14.7c0-0.4,0.2-0.7,0.7-0.8c1.5-0.7,3.2-0.9,4.9-0.9c1.2,0,2.1,0.1,2.8,0.3  c0.5,0.1,0.5,0.3,0.4,0.9L607,364.9z M620.3,365c-0.1,0.7-0.2,0.7-0.6,0.6c-0.8-0.2-1.7-0.4-3.8-0.4c-2.5,0-4.5,0.4-4.5,2.4  c0,4.3,9.5,1.5,9.5,8.5c0,3.2-2.4,4.8-6.4,4.8c-1.8,0-3.8-0.3-4.8-0.4c-0.6-0.1-0.7-0.2-0.7-0.8v-0.2c0-0.7,0.3-0.8,0.8-0.7  c0.8,0.1,2.7,0.4,4.5,0.4c3.6,0,4.5-1.4,4.5-3.1c0-5.6-9.5-2.6-9.5-8.6c0-3.4,2.9-4,6.3-4c2.5,0,3.9,0.3,4.3,0.4  c0.4,0.1,0.6,0.2,0.5,0.8L620.3,365z"/>
<linearGradient id="Fill-40_1_" gradientUnits="userSpaceOnUse" x1="-148.4745" y1="600.6135" x2="-147.2326" y2="600.6135" gradientTransform="matrix(47.0414 0 0 -49.4065 7044.3384 29986.3672)">
	<stop offset="0" style="stop-color:#780096"/>
	<stop offset="1" style="stop-color:#FF0082"/>
</linearGradient>
<path id="Fill-40" class="st0" d="M84,261H24.5c-2,0-3.6,1.6-3.6,3.6v17.6c0,1.5,0.3,2.3,1,3c5.1,5,15.5,15.3,20.5,20.4  c0.3,0.3,0.8,0.1,0.8-0.3v-20.8c0-0.4-0.4-0.8-0.8-0.8H26.2c-1.1,0-1.9-0.8-1.9-1.9v-15.5c0-1,0.9-1.9,1.9-1.9h54.5  c1.1,0,1.9,0.8,1.9,1.9v15.5c0,1-0.9,1.9-1.9,1.9H64.4c-0.4,0-0.8,0.4-0.8,0.8v60.3c0,1-0.9,1.9-1.9,1.9H45.6  c-0.4,0-0.7,0.5-0.4,0.8c3.5,3.5,10.6,10.6,14.3,14.1c1,1,2.2,1.8,3.9,1.8h15.5c1.5,0,2.7-1.2,2.7-2.6v-35.9c0-0.4,0.4-0.8,0.8-0.8  H84c17.4,0,34.3-10.5,34.3-31.6C118.3,273.7,105.3,261,84,261"/>
</svg>