<svg xmlns="http://www.w3.org/2000/svg" xmlns:xlink="http://www.w3.org/1999/xlink" version="1.1" id="layer" x="0px" y="0px" style="enable-background:new 0 0 652 652;" xml:space="preserve" viewBox="23.05 256.12 599.85 134.28">
<style type="text/css">
	.st0{fill:#06357A;}
	.st1{fill:#00929F;}
	.st2{fill:#F15D22;}
	.st3{fill:#FFD200;}
	.st4{fill:#C1D82F;}
</style>
<g>
	<path class="st0" d="M24.1,281.3c-4.8,15.1,7.1,33.7,30.2,50.6C37,317,28.6,301.4,33,288.4c8.9-27.2,69.5-34.3,135.3-14   c18.1,5.6,34.7,10.4,49.2,18.1c-16.3-9.7-36.1-17.7-58-24.5C93.5,247.8,33,254.1,24.1,281.3"/>
	<path class="st1" d="M97.3,344.9c-24.2-13.7-38-31.4-34.3-45.9c2.7-10.1,13.7-17.4,29.6-20.1c-20.1,1.7-35.6,9.4-38.8,21.1   c-3.9,15.2,11.2,33.5,37.1,47.7L97.3,344.9"/>
	<path class="st2" d="M94.9,308.6c4.2-12.8,28.4-17.4,64.3-6c16.2,5.1,30,12.2,38.8,19.9c-8.8-6.5-20.8-12.4-34.7-16.6   c-31.3-9.5-60.1-6.9-64.3,6c-2,6.2,2,13.6,10.1,20.7C98.3,324.5,92.6,315.7,94.9,308.6"/>
	<path class="st3" d="M173.4,334.2c-3.2,7.9-19.9,6-34.3,1.1c-7.4-2.6-13.6-6.2-17.5-9.8c3.9,3.2,10.6,5.7,15.9,7.4   c14.3,4.7,28.7,3.2,30.8-1.2c4.1-8.5-9.2-13.6-16.5-15.7c5.9,1.2,8.6,2.6,12.7,4.4C173.1,325.3,175,330.4,173.4,334.2"/>
	<path class="st0" d="M70.7,359.2c1.2,1.1,2.9,1.7,5.4,1.7c3.3,0,6-1.4,6-3.2c0-3.3-8.9-8.2-23.9-8.2c-20.8,0-32.8,9.1-32.8,20.2   c0,10.7,10.3,20.7,33.2,20.7c14.8,0,22.6-4.8,22.6-7.1c0-1.1-1.5-1.8-3.3-1.8c-1.2,0-1.7,0.2-3.8,1.1c-1.7,0.6-5.9,2.3-12.2,2.3   c-11.9,0-21.9-6-21.9-16.9c0-8.9,7.7-13.9,17.1-13.9C64.7,354.1,67.8,356.8,70.7,359.2"/>
	<path class="st0" d="M150.7,369c-0.8-10.4-11.9-19.5-32.2-19.5c-20.7,0-32.6,9.1-32.6,20.5c0,13.4,15.1,20.4,32.5,20.4   C137.9,390.6,151.6,381.4,150.7,369 M136.4,369.2c0.2,3.8-0.8,8.2-3.9,11.3c-3.8,3.6-9.4,4.8-13.9,4.8c-3.9,0-14.5-1.1-17.4-10.1   c-0.5-1.5-0.8-3.3-0.8-5.6c0-3,0.5-10.9,10.4-14c2.3-0.8,5-1.1,7.7-1.1c2,0,8.6,0.2,13.6,4.4C135.8,362.1,136.4,366.2,136.4,369.2z   "/>
	<path class="st0" d="M172.8,351.5c-1.1-0.9-1.5-1.1-3.3-1.1h-7.7c-1.4,0-2.3,0.2-2.3,1.2v37c0,1.1,0.6,1.1,2.3,1.1h6.3   c1.7,0,2-0.3,2-1.2v-26.9l35.2,26.9c1.1,0.9,1.4,1.1,2.7,1.2h5.7c1.5,0,2.1-0.2,2.1-1.1v-37.1c0-0.9-0.5-1.2-2-1.1h-6.3   c-1.7,0-2,0.3-2,1.1v24.8L172.8,351.5"/>
	<path class="st0" d="M270.3,359.2c1.2,1.1,2.9,1.7,5.4,1.7c3.3,0,6-1.4,6-3.2c0-3.3-8.9-8.2-23.9-8.2c-21,0-32.8,9.1-32.8,20.2   c0,10.7,10.3,20.7,33.1,20.7c14.8,0,22.6-4.8,22.6-7.1c0-1.1-1.5-1.8-3.3-1.8c-1.2,0-1.7,0.2-3.8,1.1c-1.7,0.6-5.9,2.3-12.2,2.3   c-11.9,0-21.9-6-21.9-16.9c0-8.9,7.7-13.9,17.1-13.9C264.3,354.1,267.4,356.8,270.3,359.2"/>
	<path class="st0" d="M327.1,371.8c1.7,0,2.3-0.2,2.3-1.1V368c0-0.9-0.6-1.1-2.1-1.1h-20.4v-11.5H331c1.7,0,2.4-0.2,2.3-1.2v-2.7   c0.2-1.1-0.9-1.1-2.3-1.1h-35.3c-1.8,0-2.4,0.3-2.4,1.5v36.4c0,1.2,0.8,1.2,2.4,1.2H331c1.7,0,2.1-0.2,2.3-0.8v-3.2   c0-1.1-0.8-1.1-2.3-1.1h-24.2v-12.8H327.1"/>
	<path class="st0" d="M358,351.5c-1.1-0.9-1.5-1.1-3.3-1.1h-7.5c-1.4,0-2.3,0.2-2.3,1.2v37c0,1.1,0.6,1.1,2.3,1.1h6.3   c1.7,0,2-0.3,2-1.2v-26.9l35,26.9c1.1,0.9,1.4,1.1,2.7,1.2h5.7c1.5,0,2.1-0.2,2.1-1.1v-37.1c0-0.9-0.5-1.2-2-1.1h-6.3   c-1.7,0-2,0.3-2,1.1v24.8L358,351.5"/>
	<path class="st0" d="M456.8,355.5c1.8,0,2.3-0.3,2.3-1.2v-2.7c0-0.9-0.8-1.1-2.3-1.1h-44.7c-1.5,0-2.3,0.2-2.3,1.2v2.6   c0,0.9,0.5,1.2,2.3,1.2h15.4v32.9c0,1.1,0.6,1.2,2.4,1.4h9.2c1.7,0,2.1-0.5,2.1-1.4v-32.9H456.8"/>
	<path class="st0" d="M467.6,388.5c0,1.1,0.8,1.2,2.3,1.2h8.9c2,0,2.3-0.3,2.3-1.4v-14c0-0.5,0-1.5,2.1-1.5c2,0,3.2,0.9,3.6,1.5   l15.2,14.2c1.1,0.9,1.2,1.1,3.3,1.1h10.3c0.8,0,2,0,2-0.8c0-0.3-0.5-0.8-0.8-1.1l-19-16.3c7.1-1.2,15.9-4.4,15.9-10.6   c0-3.2-2.1-6.2-6.6-8.2c-6-2.7-15.1-2.9-21-2.9c-6.6,0-14.5,0.5-16.8,0.9c-1.4,0.3-1.7,0.6-1.7,1.8L467.6,388.5 M481.1,354.5   c1.1,0,2.4-0.2,4.5-0.2c3.9,0,14.5,0,14.5,7.5c0,5.1-6.3,7.1-12.4,7.5c-1.7,0.2-2.9,0.2-6.6,0V354.5z"/>
	<path class="st0" d="M540.3,351.7c0-1.1-0.6-1.2-2.1-1.2h-9.7c-1.8,0-2.1,0.5-2.1,1.2v36.8c0,1.1,0.8,1.2,2.3,1.2h9.5   c1.4,0,2.3-0.2,2.3-1.2v-36.8"/>
	<path class="st0" d="M588.6,388.5c1.1,1.1,1.4,1.1,3.3,1.1h9.8c0.8,0,2,0,2-0.8c0-0.3-0.3-0.6-0.6-0.9l-20.2-19.8l17.1-16   c0.3-0.3,0.6-0.6,0.6-0.9c0-0.8-1.2-0.8-1.8-0.8h-6.9c-1.8,0-2,0-3.2,1.1l-11.5,10.9l-11.2-10.9c-1.1-0.9-1.4-1.1-3.5-1.1h-9.2   c-0.6,0-0.3,0-0.3,0.8c0,0.2,0.2,0.5,0.5,0.8l15.9,17.7l-18.1,18.4c-0.8,0.6-0.9,0.9-0.9,1.1c0,0.6,1.4,0.6,2.1,0.6h5.4   c1.7,0,2-0.2,3-1.1l14.2-13.1L588.6,388.5"/>
	<path class="st4" d="M254.9,339.1c-12.5-19.6-38.8-40.5-76.7-53.1c-33.1-11.2-71-16.9-95.4-15.2c23.4,0.8,49.4,4.5,81.2,14.5   c40.2,12.5,67.8,34.1,80.5,54.4c0,0,2.4-0.2,4.7-0.3C252.6,338.8,254.9,339.1,254.9,339.1"/>
	<path class="st0" d="M607,341.1h-3.2v-1.2h7.9v1.2h-3.3v9.4H607V341.1z"/>
	<path class="st0" d="M621.6,345.8c-0.2-1.5-0.2-3.2-0.2-4.5l0,0c-0.3,1.2-0.8,2.6-1.4,4.1l-1.8,5.1h-1.1l-1.7-5   c-0.5-1.5-0.9-2.9-1.2-4.1l0,0c0,1.4-0.2,3-0.2,4.7l-0.3,4.5h-1.4l0.8-10.6h1.7l1.8,5.1c0.5,1.4,0.8,2.4,1.1,3.6l0,0   c0.3-1.1,0.6-2.3,1.1-3.6l1.8-5.1h1.7l0.6,10.6h-1.4L621.6,345.8z"/>
</g>
</svg>